_Griffith_Gothic-Condensed_WebTT.ufo
<glyph name="quotedbl" format="1">
  <advance width="604.16"/>
  <unicode hex="0022"/>
  <outline>
    <contour>
      <point x="82" y="1475" type="line"/>
      <point x="244" y="1475" type="line"/>
      <point x="201" y="1018" type="line"/>
      <point x="125" y="1018" type="line"/>
    </contour>
    <contour>
      <point x="362" y="1475" type="line"/>
      <point x="522" y="1475" type="line"/>
      <point x="477" y="1018" type="line"/>
      <point x="406" y="1018" type="line"/>
    </contour>
  </outline>
</glyph>
<glyph name="dollar" format="1">
  <advance width="890.88"/>
  <unicode hex="0024"/>
  <outline>
    <contour>
      <point x="492" y="821" type="line"/>
      <point x="673.343283582" y="741.895522388"/>
      <point x="842.0" y="537.985074627"/>
      <point x="842" y="385" type="qcurve" smooth="yes"/>
      <point x="842.0" y="209.626865672"/>
      <point x="641.791044776" y="11.4328358209"/>
      <point x="500" y="-2" type="qcurve"/>
      <point x="500" y="-195" type="line"/>
      <point x="403" y="-195" type="line"/>
      <point x="403" y="-2" type="line"/>
      <point x="297.776119403" y="6.9552238806"/>
      <point x="116.134328358" y="114.253731343"/>
      <point x="43" y="215" type="qcurve"/>
      <point x="141" y="311" type="line"/>
      <point x="199.208955224" y="228.910447761"/>
      <point x="333.641791045" y="134.462686567"/>
      <point x="412" y="127" type="qcurve"/>
      <point x="412" y="700" type="line"/>
      <point x="270.955223881" y="761.194029851"/>
      <point x="76.0" y="949.074626866"/>
      <point x="76" y="1114" type="qcurve" smooth="yes"/>
      <point x="76.0" y="1266.98507463"/>
      <point x="258.223880597" y="1466.31343284"/>
      <point x="403" y="1479" type="qcurve"/>
      <point x="403" y="1561" type="line"/>
      <point x="498" y="1561" type="line"/>
      <point x="498" y="1479" type="line"/>
      <point x="597.253731343" y="1466.31343284"/>
      <point x="749.835820896" y="1370.80597015"/>
      <point x="817" y="1282" type="qcurve"/>
      <point x="715" y="1188" type="line"/>
      <point x="661.268656716" y="1261.13432836"/>
      <point x="550.955223881" y="1339.79104478"/>
      <point x="492" y="1348" type="qcurve"/>
    </contour>
    <contour>
      <point x="221" y="1126" type="qcurve" smooth="yes"/>
      <point x="221.0" y="1032.71641791"/>
      <point x="315.731343284" y="904.268656716"/>
      <point x="412" y="858" type="qcurve"/>
      <point x="412" y="1354" type="line"/>
      <point x="323.194029851" y="1345.79104478"/>
      <point x="221.0" y="1220.7761194"/>
    </contour>
    <contour>
      <point x="492" y="121" type="line"/>
      <point x="583.044776119" y="131.447761194"/>
      <point x="690.0" y="258.552238806"/>
      <point x="690" y="369" type="qcurve" smooth="yes"/>
      <point x="690.0" y="468.253731343"/>
      <point x="606.179104478" y="604.298507463"/>
      <point x="492" y="664" type="qcurve"/>
    </contour>
  </outline>
</glyph>
<glyph name="percent" format="1">
  <advance width="1284.096"/>
  <unicode hex="0025"/>
  <outline>
    <contour>
      <point x="328" y="1489" type="qcurve" smooth="yes"/>
      <point x="445.164179104" y="1489.0"/>
      <point x="604.0" y="1294.08955224"/>
      <point x="604" y="1112" type="qcurve" smooth="yes"/>
      <point x="604.0" y="932.895522388"/>
      <point x="442.656716418" y="735.0"/>
      <point x="324" y="735" type="qcurve" smooth="yes"/>
      <point x="206.089552239" y="735.0"/>
      <point x="49.0" y="931.402985075"/>
      <point x="49" y="1112" type="qcurve" smooth="yes"/>
      <point x="49.0" y="1292.59701493"/>
      <point x="208.597014925" y="1489.0"/>
    </contour>
    <contour>
      <point x="326" y="848" type="qcurve" smooth="yes"/>
      <point x="399.134328358" y="848.0"/>
      <point x="471.0" y="990.597014925"/>
      <point x="471" y="1110" type="qcurve" smooth="yes"/>
      <point x="471.0" y="1229.40298507"/>
      <point x="400.626865672" y="1374.0"/>
      <point x="326" y="1374" type="qcurve" smooth="yes"/>
      <point x="252.119402985" y="1374.0"/>
      <point x="182.0" y="1231.91044776"/>
      <point x="182" y="1114" type="qcurve" smooth="yes"/>
      <point x="182.0" y="994.597014925"/>
      <point x="252.119402985" y="848.0"/>
    </contour>
    <contour>
      <point x="958" y="739" type="qcurve" smooth="yes"/>
      <point x="1077.40298507" y="739.0"/>
      <point x="1235.0" y="544.850746269"/>
      <point x="1235" y="365" type="qcurve" smooth="yes"/>
      <point x="1235.0" y="184.402985075"/>
      <point x="1073.91044776" y="-14.0"/>
      <point x="956" y="-14" type="qcurve" smooth="yes"/>
      <point x="837.343283582" y="-14.0"/>
      <point x="680.0" y="182.910447761"/>
      <point x="680" y="365" type="qcurve" smooth="yes"/>
      <point x="680.0" y="541.865671642"/>
      <point x="840.835820896" y="739.0"/>
    </contour>
    <contour>
      <point x="956" y="100" type="qcurve" smooth="yes"/>
      <point x="1029.88059701" y="100.0"/>
      <point x="1104.0" y="243.343283582"/>
      <point x="1104" y="362" type="qcurve" smooth="yes"/>
      <point x="1104.0" y="481.402985075"/>
      <point x="1031.37313433" y="627.0"/>
      <point x="956" y="627" type="qcurve" smooth="yes"/>
      <point x="884.358208955" y="627.0"/>
      <point x="813.0" y="484.164179104"/>
      <point x="813" y="367" type="qcurve" smooth="yes"/>
      <point x="813.0" y="247.597014925"/>
      <point x="882.865671642" y="100.0"/>
    </contour>
    <contour>
      <point x="930" y="1475" type="line"/>
      <point x="1069" y="1475" type="line"/>
      <point x="682" y="717" type="line"/>
      <point x="356" y="2" type="line"/>
      <point x="217" y="2" type="line"/>
      <point x="604" y="760" type="line"/>
    </contour>
  </outline>
</glyph>
<glyph name="ampersand" format="1">
  <advance width="1116.16"/>
  <unicode hex="0026"/>
  <outline>
    <contour>
      <point x="1114" y="127" type="qcurve"/>
      <point x="1114" y="6" type="line"/>
      <point x="1087.88059701" y="-2.9552238806"/>
      <point x="1040.59701493" y="-12.0"/>
      <point x="1010" y="-12" type="qcurve" smooth="yes"/>
      <point x="934.626865672" y="-12.0"/>
      <point x="815.895522388" y="51.2089552239"/>
      <point x="745" y="143" type="qcurve"/>
      <point x="674.850746269" y="65.3880597015"/>
      <point x="516.805970149" y="-20.0"/>
      <point x="428" y="-20" type="qcurve" smooth="yes"/>
      <point x="255.611940299" y="-20.0"/>
      <point x="49.0" y="205.925373134"/>
      <point x="49" y="391" type="qcurve" smooth="yes"/>
      <point x="49.0" y="526.820895522"/>
      <point x="177.970149254" y="746.746268657"/>
      <point x="322" y="846" type="qcurve"/>
      <point x="274.23880597" y="937.791044776"/>
      <point x="219.0" y="1109.70149254"/>
      <point x="219" y="1200" type="qcurve" smooth="yes"/>
      <point x="219.0" y="1325.37313433"/>
      <point x="365.641791045" y="1499.0"/>
      <point x="494" y="1499" type="qcurve" smooth="yes"/>
      <point x="614.149253731" y="1499.0"/>
      <point x="731.0" y="1338.70149254"/>
      <point x="731" y="1229" type="qcurve" smooth="yes"/>
      <point x="731.0" y="1097.65671642"/>
      <point x="602.432835821" y="912.343283582"/>
      <point x="489" y="831" type="qcurve"/>
      <point x="574.820895522" y="674.28358209"/>
      <point x="705.76119403" y="442.611940299"/>
      <point x="758" y="365" type="qcurve"/>
      <point x="805.014925373" y="453.059701493"/>
      <point x="890.417910448" y="681.656716418"/>
      <point x="924" y="813" type="qcurve"/>
      <point x="1040" y="754" type="line"/>
      <point x="998.955223881" y="602.507462687"/>
      <point x="894.955223881" y="350.776119403"/>
      <point x="836" y="256" type="qcurve"/>
      <point x="898.686567164" y="165.701492537"/>
      <point x="978.47761194" y="109.0"/>
      <point x="1024" y="109" type="qcurve" smooth="yes"/>
      <point x="1054.59701493" y="109.0"/>
      <point x="1089.37313433" y="118.044776119"/>
    </contour>
    <contour>
      <point x="449" y="104" type="qcurve" smooth="yes"/>
      <point x="510.940298507" y="104.0"/>
      <point x="622.746268657" y="175.313432836"/>
      <point x="672" y="238" type="qcurve"/>
      <point x="613.791044776" y="326.059701493"/>
      <point x="466.313432836" y="575.597014925"/>
      <point x="379" y="745" type="qcurve"/>
      <point x="282.731343284" y="670.373134328"/>
      <point x="203.0" y="510.776119403"/>
      <point x="203" y="416" type="qcurve" smooth="yes"/>
      <point x="203.0" y="292.119402985"/>
      <point x="334.074626866" y="104.0"/>
    </contour>
    <contour>
      <point x="432" y="918" type="qcurve"/>
      <point x="523.791044776" y="986.656716418"/>
      <point x="602.0" y="1132.67164179"/>
      <point x="602" y="1217" type="qcurve" smooth="yes"/>
      <point x="602.0" y="1294.6119403"/>
      <point x="541.23880597" y="1397.0"/>
      <point x="489" y="1397" type="qcurve" smooth="yes"/>
      <point x="421.835820896" y="1397.0"/>
      <point x="352.0" y="1283.37313433"/>
      <point x="352" y="1208" type="qcurve" smooth="yes"/>
      <point x="352.0" y="1139.34328358"/>
      <point x="392.447761194" y="997.104477612"/>
    </contour>
  </outline>
</glyph>
<glyph name="quotesingle" format="1">
  <advance width="327.68"/>
  <unicode hex="0027"/>
  <outline>
    <contour>
      <point x="82" y="1475" type="line"/>
      <point x="246" y="1475" type="line"/>
      <point x="203" y="1018" type="line"/>
      <point x="125" y="1018" type="line"/>
    </contour>
  </outline>
</glyph>
<glyph name="comma" format="1">
  <advance width="344.064"/>
  <unicode hex="002C"/>
  <outline>
    <contour>
      <point x="111" y="213" type="line"/>
      <point x="276" y="213" type="line"/>
      <point x="125" y="-225" type="line"/>
      <point x="51" y="-225" type="line"/>
    </contour>
  </outline>
</glyph>
<glyph name="period" format="1">
  <advance width="329.728"/>
  <unicode hex="002E"/>
  <outline>
    <contour>
      <point x="172" y="190" type="qcurve" smooth="yes"/>
      <point x="216.029850746" y="190.0"/>
      <point x="274.0" y="132.029850746"/>
      <point x="274" y="88" type="qcurve" smooth="yes"/>
      <point x="274.0" y="43.9701492537"/>
      <point x="216.029850746" y="-14.0"/>
      <point x="172" y="-14" type="qcurve" smooth="yes"/>
      <point x="127.970149254" y="-14.0"/>
      <point x="70.0" y="43.9701492537"/>
      <point x="70" y="88" type="qcurve" smooth="yes"/>
      <point x="70.0" y="132.029850746"/>
      <point x="127.970149254" y="190.0"/>
    </contour>
  </outline>
</glyph>
<glyph name="two" format="1">
  <advance width="903.168"/>
  <unicode hex="0032"/>
  <outline>
    <contour>
      <point x="821" y="131" type="line"/>
      <point x="821" y="0" type="line"/>
      <point x="82" y="0" type="line"/>
      <point x="82" y="106" type="line"/>
      <point x="124.537313433" y="279.134328358"/>
      <point x="285.552238806" y="535.52238806"/>
      <point x="446" y="690" type="qcurve" smooth="yes"/>
      <point x="550.47761194" y="787.76119403"/>
      <point x="647.0" y="970.626865672"/>
      <point x="647" y="1096" type="qcurve" smooth="yes"/>
      <point x="647.0" y="1211.67164179"/>
      <point x="553.268656716" y="1366.0"/>
      <point x="457" y="1366" type="qcurve" smooth="yes"/>
      <point x="368.194029851" y="1366.0"/>
      <point x="254.044776119" y="1228.52238806"/>
      <point x="213" y="1083" type="qcurve"/>
      <point x="74" y="1130" type="line"/>
      <point x="124.0" y="1316.56716418"/>
      <point x="316.970149254" y="1499.0"/>
      <point x="461" y="1499" type="qcurve" smooth="yes"/>
      <point x="634.880597015" y="1499.0"/>
      <point x="809.0" y="1268.89552239"/>
      <point x="809" y="1098" type="qcurve" smooth="yes"/>
      <point x="809.0" y="923.373134328"/>
      <point x="657.656716418" y="698.686567164"/>
      <point x="539" y="586" type="qcurve" smooth="yes"/>
      <point x="415.119402985" y="471.074626866"/>
      <point x="279.104477612" y="253.388059701"/>
      <point x="250" y="131" type="qcurve"/>
    </contour>
  </outline>
</glyph>
<glyph name="four" format="1">
  <advance width="927.744"/>
  <unicode hex="0034"/>
  <outline>
    <contour>
      <point x="874" y="512" type="line"/>
      <point x="874" y="408" type="line"/>
      <point x="729" y="408" type="line"/>
      <point x="729" y="0" type="line"/>
      <point x="569" y="0" type="line"/>
      <point x="569" y="408" type="line"/>
      <point x="55" y="408" type="line"/>
      <point x="55" y="545" type="line"/>
      <point x="520" y="1475" type="line"/>
      <point x="729" y="1475" type="line"/>
      <point x="729" y="512" type="line"/>
    </contour>
    <contour>
      <point x="168" y="512" type="line"/>
      <point x="569" y="512" type="line"/>
      <point x="569" y="1309" type="line"/>
      <point x="555" y="1309" type="line"/>
      <point x="168" y="530" type="line"/>
    </contour>
  </outline>
</glyph>
<glyph name="five" format="1">
  <advance width="890.88"/>
  <unicode hex="0035"/>
  <outline>
    <contour>
      <point x="827" y="516" type="qcurve" smooth="yes"/>
      <point x="827" y="502" type="line" smooth="yes"/>
      <point x="827.0" y="234.089552239"/>
      <point x="566.074626866" y="-20.0"/>
      <point x="381" y="-20" type="qcurve" smooth="yes"/>
      <point x="281.746268657" y="-20.0"/>
      <point x="134.343283582" y="19.7313432836"/>
      <point x="53" y="66" type="qcurve"/>
      <point x="113" y="193" type="line"/>
      <point x="186.134328358" y="146.731343284"/>
      <point x="299.119402985" y="115.0"/>
      <point x="373" y="115" type="qcurve" smooth="yes"/>
      <point x="507.328358209" y="115.0"/>
      <point x="659.0" y="318.895522388"/>
      <point x="659" y="498" type="qcurve" smooth="yes"/>
      <point x="659" y="504" type="line" smooth="yes"/>
      <point x="659.0" y="658.47761194"/>
      <point x="559.746268657" y="821.0"/>
      <point x="459" y="821" type="qcurve" smooth="yes"/>
      <point x="394.820895522" y="821.0"/>
      <point x="299.552238806" y="752.746268657"/>
      <point x="260" y="702" type="qcurve"/>
      <point x="113" y="702" type="line"/>
      <point x="172" y="1475" type="line"/>
      <point x="764" y="1475" type="line"/>
      <point x="764" y="1337" type="line"/>
      <point x="291" y="1337" type="line"/>
      <point x="248" y="815" type="line"/>
      <point x="260" y="815" type="line"/>
      <point x="301.044776119" y="870.223880597"/>
      <point x="418.179104478" y="944.0"/>
      <point x="504" y="944" type="qcurve" smooth="yes"/>
      <point x="648.776119403" y="944.0"/>
      <point x="827.0" y="733.164179104"/>
    </contour>
  </outline>
</glyph>
<glyph name="seven" format="1">
  <advance width="831.488"/>
  <unicode hex="0037"/>
  <outline>
    <contour>
      <point x="803" y="1475" type="line"/>
      <point x="803" y="1374" type="line"/>
      <point x="636.582089552" y="1100.86567164"/>
      <point x="377.492537313" y="344.029850746"/>
      <point x="326" y="0" type="qcurve"/>
      <point x="160" y="0" type="line"/>
      <point x="207.014925373" y="302.985074627"/>
      <point x="466.582089552" y="1063.86567164"/>
      <point x="633" y="1337" type="qcurve"/>
      <point x="33" y="1337" type="line"/>
      <point x="33" y="1475" type="line"/>
    </contour>
  </outline>
</glyph>
<glyph name="eight" format="1">
  <advance width="952.32"/>
  <unicode hex="0038"/>
  <outline>
    <contour>
      <point x="653" y="782" type="line"/>
      <point x="743.298507463" y="749.910447761"/>
      <point x="887.0" y="555.955223881"/>
      <point x="887" y="397" type="qcurve" smooth="yes"/>
      <point x="887.0" y="192.52238806"/>
      <point x="636.940298507" y="-25.0"/>
      <point x="475" y="-25" type="qcurve" smooth="yes"/>
      <point x="313.059701493" y="-25.0"/>
      <point x="66.0" y="188.52238806"/>
      <point x="66" y="393" type="qcurve" smooth="yes"/>
      <point x="66.0" y="553.447761194"/>
      <point x="206.701492537" y="749.910447761"/>
      <point x="297" y="782" type="qcurve"/>
      <point x="297" y="793" type="line"/>
      <point x="219.388059701" y="826.582089552"/>
      <point x="98.0" y="992.656716418"/>
      <point x="98" y="1124" type="qcurve" smooth="yes"/>
      <point x="98.0" y="1292.65671642"/>
      <point x="314.552238806" y="1499.0"/>
      <point x="475" y="1499" type="qcurve" smooth="yes"/>
      <point x="635.447761194" y="1499.0"/>
      <point x="854.0" y="1296.65671642"/>
      <point x="854" y="1128" type="qcurve" smooth="yes"/>
      <point x="854.0" y="998.149253731"/>
      <point x="731.358208955" y="828.074626866"/>
      <point x="653" y="793" type="qcurve"/>
    </contour>
    <contour>
      <point x="475" y="96" type="qcurve" smooth="yes"/>
      <point x="583.955223881" y="96.0"/>
      <point x="721.0" y="257.492537313"/>
      <point x="721" y="406" type="qcurve" smooth="yes"/>
      <point x="721.0" y="556.746268657"/>
      <point x="580.223880597" y="731.0"/>
      <point x="475" y="731" type="qcurve" smooth="yes"/>
      <point x="368.28358209" y="731.0"/>
      <point x="229.0" y="560.746268657"/>
      <point x="229" y="410" type="qcurve" smooth="yes"/>
      <point x="229.0" y="261.492537313"/>
      <point x="365.298507463" y="96.0"/>
    </contour>
    <contour>
      <point x="475" y="836" type="qcurve" smooth="yes"/>
      <point x="569.776119403" y="836.0"/>
      <point x="694.0" y="978.149253731"/>
      <point x="694" y="1108" type="qcurve" smooth="yes"/>
      <point x="694.0" y="1231.88059701"/>
      <point x="578.731343284" y="1378.0"/>
      <point x="475" y="1378" type="qcurve" smooth="yes"/>
      <point x="371.268656716" y="1378.0"/>
      <point x="256.0" y="1232.89552239"/>
      <point x="256" y="1112" type="qcurve" smooth="yes"/>
      <point x="256.0" y="985.134328358"/>
      <point x="378.731343284" y="836.0"/>
    </contour>
  </outline>
</glyph>
<glyph name="semicolon" format="1">
  <advance width="378.88"/>
  <unicode hex="003B"/>
  <outline>
    <contour>
      <point x="193" y="1077" type="qcurve" smooth="yes"/>
      <point x="237.029850746" y="1077.0"/>
      <point x="295.0" y="1018.52238806"/>
      <point x="295" y="973" type="qcurve" smooth="yes"/>
      <point x="295.0" y="928.223880597"/>
      <point x="237.029850746" y="870.0"/>
      <point x="193" y="870" type="qcurve" smooth="yes"/>
      <point x="148.223880597" y="870.0"/>
      <point x="90.0" y="928.223880597"/>
      <point x="90" y="973" type="qcurve" smooth="yes"/>
      <point x="90.0" y="1018.52238806"/>
      <point x="148.223880597" y="1077.0"/>
    </contour>
    <contour>
      <point x="111" y="213" type="line"/>
      <point x="276" y="213" type="line"/>
      <point x="125" y="-225" type="line"/>
      <point x="51" y="-225" type="line"/>
    </contour>
  </outline>
</glyph>
<glyph name="less" format="1">
  <advance width="966.656"/>
  <unicode hex="003C"/>
  <outline>
    <contour>
      <point x="883" y="424" type="line"/>
      <point x="883" y="270" type="line"/>
      <point x="72" y="655" type="line"/>
      <point x="72" y="797" type="line"/>
      <point x="883" y="1184" type="line"/>
      <point x="883" y="1030" type="line"/>
      <point x="215" y="725" type="line"/>
    </contour>
  </outline>
</glyph>
<glyph name="equal" format="1">
  <advance width="964.608"/>
  <unicode hex="003D"/>
  <outline>
    <contour>
      <point x="874" y="592" type="line"/>
      <point x="874" y="459" type="line"/>
      <point x="90" y="459" type="line"/>
      <point x="90" y="592" type="line"/>
    </contour>
    <contour>
      <point x="874" y="1010" type="line"/>
      <point x="874" y="877" type="line"/>
      <point x="90" y="877" type="line"/>
      <point x="90" y="1010" type="line"/>
    </contour>
  </outline>
</glyph>
<glyph name="greater" format="1">
  <advance width="966.656"/>
  <unicode hex="003E"/>
  <outline>
    <contour>
      <point x="895" y="797" type="line"/>
      <point x="895" y="657" type="line"/>
      <point x="82" y="272" type="line"/>
      <point x="82" y="424" type="line"/>
      <point x="752" y="729" type="line"/>
      <point x="82" y="1032" type="line"/>
      <point x="82" y="1184" type="line"/>
    </contour>
  </outline>
</glyph>
<glyph name="question" format="1">
  <advance width="757.76"/>
  <unicode hex="003F"/>
  <outline>
    <contour>
      <point x="381" y="1499" type="qcurve" smooth="yes"/>
      <point x="528.014925373" y="1499.0"/>
      <point x="694.0" y="1307.47761194"/>
      <point x="694" y="1153" type="qcurve" smooth="yes"/>
      <point x="694.0" y="1021.65671642"/>
      <point x="606.805970149" y="861.731343284"/>
      <point x="518" y="758" type="qcurve" smooth="yes"/>
      <point x="449.343283582" y="678.149253731"/>
      <point x="397.985074627" y="538.044776119"/>
      <point x="395" y="397" type="qcurve"/>
      <point x="303" y="397" type="line"/>
      <point x="289.567164179" y="576.104477612"/>
      <point x="334.686567164" y="757.76119403"/>
      <point x="422" y="860" type="qcurve" smooth="yes"/>
      <point x="483.194029851" y="933.134328358"/>
      <point x="537.0" y="1065.14925373"/>
      <point x="537" y="1145" type="qcurve" smooth="yes"/>
      <point x="537.0" y="1244.25373134"/>
      <point x="449.119402985" y="1366.0"/>
      <point x="373" y="1366" type="qcurve" smooth="yes"/>
      <point x="297.626865672" y="1366.0"/>
      <point x="201.582089552" y="1251.37313433"/>
      <point x="168" y="1126" type="qcurve"/>
      <point x="33" y="1174" type="line"/>
      <point x="68.0746268657" y="1329.2238806"/>
      <point x="236.970149254" y="1499.0"/>
    </contour>
    <contour>
      <point x="350" y="190" type="qcurve" smooth="yes"/>
      <point x="394.776119403" y="190.0"/>
      <point x="453.0" y="132.029850746"/>
      <point x="453" y="88" type="qcurve" smooth="yes"/>
      <point x="453.0" y="43.9701492537"/>
      <point x="394.776119403" y="-14.0"/>
      <point x="350" y="-14" type="qcurve" smooth="yes"/>
      <point x="305.970149254" y="-14.0"/>
      <point x="248.0" y="43.9701492537"/>
      <point x="248" y="88" type="qcurve" smooth="yes"/>
      <point x="248.0" y="132.029850746"/>
      <point x="305.970149254" y="190.0"/>
    </contour>
  </outline>
</glyph>
<glyph name="at" format="1">
  <advance width="1595.392"/>
  <unicode hex="0040"/>
  <outline>
    <contour>
      <point x="827" y="1499" type="qcurve" smooth="yes"/>
      <point x="1115.80597015" y="1499.0"/>
      <point x="1511.0" y="1065.07462687"/>
      <point x="1511" y="680" type="qcurve" smooth="yes"/>
      <point x="1511.0" y="389.701492537"/>
      <point x="1280.28358209" y="59.0"/>
      <point x="1137" y="59" type="qcurve" smooth="yes"/>
      <point x="1042.2238806" y="59.0"/>
      <point x="919.71641791" y="180.074626866"/>
      <point x="913" y="295" type="qcurve"/>
      <point x="905" y="295" type="line"/>
      <point x="846.791044776" y="178.582089552"/>
      <point x="713.597014925" y="59.0"/>
      <point x="633" y="59" type="qcurve" smooth="yes"/>
      <point x="545.686567164" y="59.0"/>
      <point x="432.0" y="221.537313433"/>
      <point x="432" y="379" type="qcurve" smooth="yes"/>
      <point x="432.0" y="646.164179104"/>
      <point x="636.71641791" y="1055.0"/>
      <point x="780" y="1055" type="qcurve" smooth="yes"/>
      <point x="867.313432836" y="1055.0"/>
      <point x="956.850746269" y="919.23880597"/>
      <point x="977" y="817" type="qcurve"/>
      <point x="983" y="815" type="line"/>
      <point x="1028" y="1053" type="line"/>
      <point x="1157" y="1012" type="line"/>
      <point x="1042" y="389" type="line" smooth="yes"/>
      <point x="1022.59701493" y="279.298507463"/>
      <point x="1088.40298507" y="131.0"/>
      <point x="1169" y="131" type="qcurve" smooth="yes"/>
      <point x="1274.97014925" y="131.0"/>
      <point x="1442.0" y="439.194029851"/>
      <point x="1442" y="678" type="qcurve" smooth="yes"/>
      <point x="1442.0" y="1028.0"/>
      <point x="1102.85074627" y="1440.0"/>
      <point x="823" y="1440" type="qcurve" smooth="yes"/>
      <point x="534.194029851" y="1440.0"/>
      <point x="145.0" y="930.074626866"/>
      <point x="145" y="545" type="qcurve" smooth="yes"/>
      <point x="145.0" y="142.76119403"/>
      <point x="503.029850746" y="-334.0"/>
      <point x="809" y="-334" type="qcurve" smooth="yes"/>
      <point x="956.014925373" y="-334.0"/>
      <point x="1181.28358209" y="-247.611940299"/>
      <point x="1288" y="-170" type="qcurve"/>
      <point x="1321" y="-225" type="line"/>
      <point x="1207.56716418" y="-304.850746269"/>
      <point x="962.462686567" y="-393.0"/>
      <point x="805" y="-393" type="qcurve" smooth="yes"/>
      <point x="474.402985075" y="-393.0"/>
      <point x="76.0" y="108.671641791"/>
      <point x="76" y="543" type="qcurve" smooth="yes"/>
      <point x="76.0" y="966.134328358"/>
      <point x="517.298507463" y="1499.0"/>
    </contour>
    <contour>
      <point x="690" y="160" type="qcurve" smooth="yes"/>
      <point x="783.28358209" y="160.0"/>
      <point x="949.52238806" y="483.910447761"/>
      <point x="954" y="666" type="qcurve" smooth="yes"/>
      <point x="955.492537313" y="765.253731343"/>
      <point x="881.149253731" y="944.0"/>
      <point x="811" y="944" type="qcurve" smooth="yes"/>
      <point x="711.746268657" y="944.0"/>
      <point x="569.0" y="604.671641791"/>
      <point x="569" y="389" type="qcurve" smooth="yes"/>
      <point x="569.0" y="286.76119403"/>
      <point x="631.791044776" y="160.0"/>
    </contour>
  </outline>
</glyph>
<glyph name="B" format="1">
  <advance width="983.04"/>
  <unicode hex="0042"/>
  <outline>
    <contour>
      <point x="645" y="791" type="line"/>
      <point x="768.880597015" y="756.671641791"/>
      <point x="924.0" y="577.910447761"/>
      <point x="924" y="410" type="qcurve" smooth="yes"/>
      <point x="924.0" y="212.23880597"/>
      <point x="680.76119403" y="0.0"/>
      <point x="483" y="0" type="qcurve" smooth="yes"/>
      <point x="121" y="0" type="line"/>
      <point x="121" y="1475" type="line"/>
      <point x="487" y="1475" type="line" smooth="yes"/>
      <point x="666.104477612" y="1475.0"/>
      <point x="874.0" y="1285.43283582"/>
      <point x="874" y="1122" type="qcurve" smooth="yes"/>
      <point x="874.0" y="984.686567164"/>
      <point x="738.28358209" y="831.089552239"/>
      <point x="645" y="799" type="qcurve"/>
    </contour>
    <contour>
      <point x="469" y="119" type="line" smooth="yes"/>
      <point x="600.343283582" y="119.0"/>
      <point x="758.0" y="266.0"/>
      <point x="758" y="416" type="qcurve" smooth="yes"/>
      <point x="758.0" y="565.253731343"/>
      <point x="617.985074627" y="729.0"/>
      <point x="465" y="729" type="qcurve" smooth="yes"/>
      <point x="287" y="729" type="line"/>
      <point x="287" y="119" type="line"/>
    </contour>
    <contour>
      <point x="463" y="846" type="line" smooth="yes"/>
      <point x="575.686567164" y="846.0"/>
      <point x="713.0" y="976.656716418"/>
      <point x="713" y="1108" type="qcurve" smooth="yes"/>
      <point x="713.0" y="1230.3880597"/>
      <point x="582.940298507" y="1356.0"/>
      <point x="471" y="1356" type="qcurve" smooth="yes"/>
      <point x="287" y="1356" type="line"/>
      <point x="287" y="846" type="line"/>
    </contour>
  </outline>
</glyph>
<glyph name="C" format="1">
  <advance width="940.032"/>
  <unicode hex="0043"/>
  <outline>
    <contour>
      <point x="733" y="471" type="qcurve"/>
      <point x="887" y="434" type="line"/>
      <point x="851.925373134" y="219.820895522"/>
      <point x="668.865671642" y="-25.0"/>
      <point x="492" y="-25" type="qcurve" smooth="yes"/>
      <point x="302.447761194" y="-25.0"/>
      <point x="78.0" y="329.059701493"/>
      <point x="78" y="641" type="qcurve" smooth="yes"/>
      <point x="78" y="831" type="line" smooth="yes"/>
      <point x="78.0" y="1142.94029851"/>
      <point x="302.447761194" y="1499.0"/>
      <point x="492" y="1499" type="qcurve" smooth="yes"/>
      <point x="662.895522388" y="1499.0"/>
      <point x="846.910447761" y="1265.0"/>
      <point x="879" y="1065" type="qcurve"/>
      <point x="721" y="1022" type="line"/>
      <point x="694.880597015" y="1192.89552239"/>
      <point x="589.76119403" y="1368.0"/>
      <point x="492" y="1368" type="qcurve" smooth="yes"/>
      <point x="368.119402985" y="1368.0"/>
      <point x="248.0" y="1074.62686567"/>
      <point x="248" y="850" type="qcurve" smooth="yes"/>
      <point x="248" y="629" type="line" smooth="yes"/>
      <point x="248.0" y="399.895522388"/>
      <point x="373.611940299" y="106.0"/>
      <point x="496" y="106" type="qcurve" smooth="yes"/>
      <point x="593.76119403" y="106.0"/>
      <point x="702.402985075" y="285.925373134"/>
    </contour>
  </outline>
</glyph>
<glyph name="F" format="1">
  <advance width="821.248"/>
  <unicode hex="0046"/>
  <outline>
    <contour>
      <point x="791" y="1475" type="line"/>
      <point x="791" y="1339" type="line"/>
      <point x="291" y="1339" type="line"/>
      <point x="291" y="801" type="line"/>
      <point x="688" y="801" type="line"/>
      <point x="688" y="668" type="line"/>
      <point x="291" y="668" type="line"/>
      <point x="291" y="0" type="line"/>
      <point x="121" y="0" type="line"/>
      <point x="121" y="1475" type="line"/>
    </contour>
  </outline>
</glyph>
<glyph name="J" format="1">
  <advance width="825.344"/>
  <unicode hex="004A"/>
  <outline>
    <contour>
      <point x="709" y="1475" type="line"/>
      <point x="709" y="389" type="line" smooth="yes"/>
      <point x="709.0" y="184.52238806"/>
      <point x="525.955223881" y="-25.0"/>
      <point x="367" y="-25" type="qcurve" smooth="yes"/>
      <point x="211.029850746" y="-25.0"/>
      <point x="36.4925373134" y="173.776119403"/>
      <point x="35" y="379" type="qcurve"/>
      <point x="188" y="424" type="line"/>
      <point x="191.731343284" y="251.611940299"/>
      <point x="288.164179104" y="109.0"/>
      <point x="371" y="109" type="qcurve" smooth="yes"/>
      <point x="450.104477612" y="109.0"/>
      <point x="537.0" y="243.208955224"/>
      <point x="537" y="385" type="qcurve" smooth="yes"/>
      <point x="537" y="1475" type="line"/>
    </contour>
  </outline>
</glyph>
<glyph name="L" format="1">
  <advance width="806.912"/>
  <unicode hex="004C"/>
  <outline>
    <contour>
      <point x="788" y="137" type="line"/>
      <point x="788" y="0" type="line"/>
      <point x="121" y="0" type="line"/>
      <point x="121" y="1475" type="line"/>
      <point x="291" y="1475" type="line"/>
      <point x="291" y="137" type="line"/>
    </contour>
  </outline>
</glyph>
<glyph name="N" format="1">
  <advance width="1038.336"/>
  <unicode hex="004E"/>
  <outline>
    <contour>
      <point x="918" y="1475" type="line"/>
      <point x="918" y="0" type="line"/>
      <point x="745" y="0" type="line"/>
      <point x="272" y="1180" type="line"/>
      <point x="262" y="1180" type="line"/>
      <point x="262" y="0" type="line"/>
      <point x="121" y="0" type="line"/>
      <point x="121" y="1475" type="line"/>
      <point x="305" y="1475" type="line"/>
      <point x="766" y="328" type="line"/>
      <point x="774" y="328" type="line"/>
      <point x="774" y="1475" type="line"/>
    </contour>
  </outline>
</glyph>
<glyph name="O" format="1">
  <advance width="1005.568"/>
  <unicode hex="004F"/>
  <outline>
    <contour>
      <point x="928" y="834" type="qcurve" smooth="yes"/>
      <point x="928" y="643" type="line" smooth="yes"/>
      <point x="928.0" y="331.059701493"/>
      <point x="701.014925373" y="-25.0"/>
      <point x="504" y="-25" type="qcurve" smooth="yes"/>
      <point x="305.492537313" y="-25.0"/>
      <point x="78.0" y="329.059701493"/>
      <point x="78" y="641" type="qcurve" smooth="yes"/>
      <point x="78" y="831" type="line" smooth="yes"/>
      <point x="78.0" y="1142.94029851"/>
      <point x="305.492537313" y="1499.0"/>
      <point x="504" y="1499" type="qcurve" smooth="yes"/>
      <point x="701.014925373" y="1499.0"/>
      <point x="928.0" y="1145.19402985"/>
    </contour>
    <contour>
      <point x="504" y="102" type="qcurve" smooth="yes"/>
      <point x="633.850746269" y="102.0"/>
      <point x="758.0" y="392.328358209"/>
      <point x="758" y="608" type="qcurve" smooth="yes"/>
      <point x="758" y="862" type="line" smooth="yes"/>
      <point x="758.0" y="1077.67164179"/>
      <point x="633.850746269" y="1372.0"/>
      <point x="504" y="1372" type="qcurve" smooth="yes"/>
      <point x="372.656716418" y="1372.0"/>
      <point x="248.0" y="1081.67164179"/>
      <point x="248" y="866" type="qcurve" smooth="yes"/>
      <point x="248" y="612" type="line" smooth="yes"/>
      <point x="248.0" y="395.582089552"/>
      <point x="372.656716418" y="102.0"/>
    </contour>
  </outline>
</glyph>
<glyph name="Q" format="1">
  <advance width="1005.568"/>
  <unicode hex="0051"/>
  <outline>
    <contour>
      <point x="993" y="-98" type="qcurve"/>
      <point x="993" y="-211" type="line"/>
      <point x="976.582089552" y="-216.970149254"/>
      <point x="940.417910448" y="-221.0"/>
      <point x="924" y="-221" type="qcurve" smooth="yes"/>
      <point x="854.597014925" y="-221.0"/>
      <point x="766.552238806" y="-164.119402985"/>
      <point x="727" y="-88" type="qcurve" smooth="yes"/>
      <point x="672" y="18" type="line"/>
      <point x="635.432835821" y="-4.38805970149"/>
      <point x="549.52238806" y="-25.0"/>
      <point x="504" y="-25" type="qcurve" smooth="yes"/>
      <point x="305.492537313" y="-25.0"/>
      <point x="78.0" y="329.059701493"/>
      <point x="78" y="641" type="qcurve" smooth="yes"/>
      <point x="78" y="831" type="line" smooth="yes"/>
      <point x="78.0" y="1142.94029851"/>
      <point x="305.492537313" y="1499.0"/>
      <point x="504" y="1499" type="qcurve" smooth="yes"/>
      <point x="701.014925373" y="1499.0"/>
      <point x="928.0" y="1145.19402985"/>
      <point x="928" y="834" type="qcurve" smooth="yes"/>
      <point x="928" y="643" type="line" smooth="yes"/>
      <point x="928.0" y="450.462686567"/>
      <point x="838.089552239" y="162.089552239"/>
      <point x="756" y="80" type="qcurve"/>
      <point x="823" y="-35" type="line" smooth="yes"/>
      <point x="846.134328358" y="-74.552238806"/>
      <point x="895.940298507" y="-109.0"/>
      <point x="934" y="-109" type="qcurve" smooth="yes"/>
      <point x="948.925373134" y="-109.0"/>
      <point x="976.582089552" y="-102.47761194"/>
    </contour>
    <contour>
      <point x="676" y="199" type="line"/>
      <point x="717.044776119" y="260.194029851"/>
      <point x="762.0" y="456.343283582"/>
      <point x="762" y="575" type="qcurve" smooth="yes"/>
      <point x="762" y="860" type="line" smooth="yes"/>
      <point x="762.0" y="1077.1641791"/>
      <point x="635.850746269" y="1372.0"/>
      <point x="506" y="1372" type="qcurve" smooth="yes"/>
      <point x="373.164179104" y="1372.0"/>
      <point x="248.0" y="1079.67164179"/>
      <point x="248" y="864" type="qcurve" smooth="yes"/>
      <point x="248" y="608" type="line" smooth="yes"/>
      <point x="248.0" y="390.835820896"/>
      <point x="373.164179104" y="98.0"/>
      <point x="506" y="98" type="qcurve" smooth="yes"/>
      <point x="538.089552239" y="98.0"/>
      <point x="592.119402985" y="117.089552239"/>
      <point x="616" y="135" type="qcurve"/>
      <point x="469" y="412" type="line"/>
      <point x="532" y="453" type="line"/>
    </contour>
  </outline>
</glyph>
<glyph name="R" format="1">
  <advance width="970.752"/>
  <unicode hex="0052"/>
  <outline>
    <contour>
      <point x="602" y="676" type="qcurve"/>
      <point x="920" y="0" type="line"/>
      <point x="741" y="0" type="line"/>
      <point x="451" y="631" type="line"/>
      <point x="289" y="631" type="line"/>
      <point x="289" y="0" type="line"/>
      <point x="121" y="0" type="line"/>
      <point x="121" y="1475" type="line"/>
      <point x="444" y="1475" type="line" smooth="yes"/>
      <point x="652.208955224" y="1475.0"/>
      <point x="887.0" y="1266.46268657"/>
      <point x="887" y="1059" type="qcurve" smooth="yes"/>
      <point x="887.0" y="892.582089552"/>
      <point x="727.373134328" y="702.119402985"/>
    </contour>
    <contour>
      <point x="451" y="752" type="line" smooth="yes"/>
      <point x="582.343283582" y="752.0"/>
      <point x="721.0" y="897.507462687"/>
      <point x="721" y="1049" type="qcurve" smooth="yes"/>
      <point x="721.0" y="1195.26865672"/>
      <point x="582.059701493" y="1348.0"/>
      <point x="444" y="1348" type="qcurve" smooth="yes"/>
      <point x="289" y="1348" type="line"/>
      <point x="289" y="752" type="line"/>
    </contour>
  </outline>
</glyph>
<glyph name="W" format="1">
  <advance width="1560.576"/>
  <unicode hex="0057"/>
  <outline>
    <contour>
      <point x="1352" y="1475" type="line"/>
      <point x="1518" y="1475" type="line"/>
      <point x="1233" y="-10" type="line"/>
      <point x="1020" y="-10" type="line"/>
      <point x="786" y="1262" type="line"/>
      <point x="774" y="1262" type="line"/>
      <point x="539" y="-10" type="line"/>
      <point x="326" y="-10" type="line"/>
      <point x="41" y="1475" type="line"/>
      <point x="213" y="1475" type="line"/>
      <point x="436" y="199" type="line"/>
      <point x="446" y="199" type="line"/>
      <point x="670" y="1475" type="line"/>
      <point x="893" y="1475" type="line"/>
      <point x="1120" y="199" type="line"/>
      <point x="1130" y="199" type="line"/>
    </contour>
  </outline>
</glyph>
<glyph name="X" format="1">
  <advance width="1021.952"/>
  <unicode hex="0058"/>
  <outline>
    <contour>
      <point x="610" y="764" type="line"/>
      <point x="979" y="0" type="line"/>
      <point x="791" y="0" type="line"/>
      <point x="504" y="621" type="line"/>
      <point x="207" y="0" type="line"/>
      <point x="41" y="0" type="line"/>
      <point x="412" y="756" type="line"/>
      <point x="66" y="1475" type="line"/>
      <point x="254" y="1475" type="line"/>
      <point x="520" y="901" type="line"/>
      <point x="791" y="1475" type="line"/>
      <point x="956" y="1475" type="line"/>
    </contour>
  </outline>
</glyph>
<glyph name="Y" format="1">
  <advance width="1003.52"/>
  <unicode hex="0059"/>
  <outline>
    <contour>
      <point x="813" y="1475" type="line"/>
      <point x="979" y="1475" type="line"/>
      <point x="586" y="575" type="line"/>
      <point x="586" y="0" type="line"/>
      <point x="416" y="0" type="line"/>
      <point x="416" y="573" type="line"/>
      <point x="23" y="1475" type="line"/>
      <point x="205" y="1475" type="line"/>
      <point x="512" y="735" type="line"/>
    </contour>
  </outline>
</glyph>
<glyph name="Z" format="1">
  <advance width="888.832"/>
  <unicode hex="005A"/>
  <outline>
    <contour>
      <point x="836" y="135" type="line"/>
      <point x="836" y="0" type="line"/>
      <point x="51" y="0" type="line"/>
      <point x="51" y="117" type="line"/>
      <point x="649" y="1339" type="line"/>
      <point x="80" y="1339" type="line"/>
      <point x="80" y="1475" type="line"/>
      <point x="836" y="1475" type="line"/>
      <point x="836" y="1358" type="line"/>
      <point x="240" y="135" type="line"/>
    </contour>
  </outline>
</glyph>
<glyph name="bracketright" format="1">
  <advance width="581.632"/>
  <unicode hex="005D"/>
  <outline>
    <contour>
      <point x="457" y="1493" type="line"/>
      <point x="457" y="-182" type="line"/>
      <point x="39" y="-164" type="line"/>
      <point x="39" y="-78" type="line"/>
      <point x="315" y="-92" type="line"/>
      <point x="315" y="1403" type="line"/>
      <point x="39" y="1389" type="line"/>
      <point x="39" y="1475" type="line"/>
    </contour>
  </outline>
</glyph>
<glyph name="underscore" format="1">
  <advance width="813.056"/>
  <unicode hex="005F"/>
  <outline>
    <contour>
      <point x="819" y="-98" type="line"/>
      <point x="819" y="-184" type="line"/>
      <point x="-6" y="-184" type="line"/>
      <point x="-6" y="-98" type="line"/>
    </contour>
  </outline>
</glyph>
<glyph name="grave" format="1">
  <advance width="804.864"/>
  <unicode hex="0060"/>
  <outline>
    <contour>
      <point x="408" y="1438" type="line"/>
      <point x="551" y="1186" type="line"/>
      <point x="444" y="1186" type="line"/>
      <point x="217" y="1438" type="line"/>
    </contour>
  </outline>
</glyph>
<glyph name="f" format="1">
  <advance width="542.72"/>
  <unicode hex="0066"/>
  <outline>
    <contour>
      <point x="571" y="1530" type="qcurve"/>
      <point x="571" y="1409" type="line"/>
      <point x="544.134328358" y="1424.67164179"/>
      <point x="493.059701493" y="1440.0"/>
      <point x="455" y="1440" type="qcurve" smooth="yes"/>
      <point x="402.76119403" y="1440.0"/>
      <point x="338.0" y="1369.85074627"/>
      <point x="338" y="1290" type="qcurve" smooth="yes"/>
      <point x="338" y="1059" type="line"/>
      <point x="530" y="1059" type="line"/>
      <point x="530" y="944" type="line"/>
      <point x="338" y="944" type="line"/>
      <point x="338" y="0" type="line"/>
      <point x="180" y="0" type="line"/>
      <point x="180" y="944" type="line"/>
      <point x="18" y="944" type="line"/>
      <point x="18" y="1059" type="line"/>
      <point x="180" y="1059" type="line"/>
      <point x="180" y="1298" type="line" smooth="yes"/>
      <point x="180.0" y="1426.35820896"/>
      <point x="307.044776119" y="1554.0"/>
      <point x="416" y="1554" type="qcurve" smooth="yes"/>
      <point x="472.71641791" y="1554.0"/>
      <point x="538.910447761" y="1541.94029851"/>
    </contour>
  </outline>
</glyph>
<glyph name="h" format="1">
  <advance width="829.44"/>
  <unicode hex="0068"/>
  <outline>
    <contour>
      <point x="733" y="854" type="qcurve" smooth="yes"/>
      <point x="733" y="0" type="line"/>
      <point x="571" y="0" type="line"/>
      <point x="571" y="819" type="line" smooth="yes"/>
      <point x="571.0" y="887.656716418"/>
      <point x="522.76119403" y="952.0"/>
      <point x="475" y="952" type="qcurve" smooth="yes"/>
      <point x="425.0" y="952.0"/>
      <point x="314.23880597" y="859.791044776"/>
      <point x="262" y="768" type="qcurve"/>
      <point x="262" y="0" type="line"/>
      <point x="100" y="0" type="line"/>
      <point x="100" y="1511" type="line"/>
      <point x="262" y="1556" type="line"/>
      <point x="262" y="862" type="line"/>
      <point x="270" y="862" type="line"/>
      <point x="337.164179104" y="961.253731343"/>
      <point x="469.179104478" y="1077.0"/>
      <point x="555" y="1077" type="qcurve" smooth="yes"/>
      <point x="642.313432836" y="1077.0"/>
      <point x="733.0" y="956.23880597"/>
    </contour>
  </outline>
</glyph>
<glyph name="j" format="1">
  <advance width="387.072"/>
  <unicode hex="006A"/>
  <outline>
    <contour>
      <point x="274" y="1067" type="line"/>
      <point x="274" y="-143" type="line" smooth="yes"/>
      <point x="274.0" y="-272.850746269"/>
      <point x="157.47761194" y="-389.0"/>
      <point x="53" y="-389" type="qcurve" smooth="yes"/>
      <point x="13.447761194" y="-389.0"/>
      <point x="-40.3880597015" y="-379.955223881"/>
      <point x="-68" y="-371" type="qcurve"/>
      <point x="-68" y="-262" type="line"/>
      <point x="-49.3432835821" y="-270.955223881"/>
      <point x="-6.86567164179" y="-281.0"/>
      <point x="20" y="-281" type="qcurve" smooth="yes"/>
      <point x="60.2985074627" y="-281.0"/>
      <point x="113.0" y="-222.179104478"/>
      <point x="113" y="-158" type="qcurve" smooth="yes"/>
      <point x="113" y="1067" type="line"/>
    </contour>
    <contour>
      <point x="281" y="1475" type="line"/>
      <point x="281" y="1298" type="line"/>
      <point x="104" y="1298" type="line"/>
      <point x="104" y="1475" type="line"/>
    </contour>
  </outline>
</glyph>
<glyph name="k" format="1">
  <advance width="792.576"/>
  <unicode hex="006B"/>
  <outline>
    <contour>
      <point x="451" y="545" type="line"/>
      <point x="786" y="0" type="line"/>
      <point x="610" y="0" type="line"/>
      <point x="289" y="535" type="line"/>
      <point x="289" y="541" type="line"/>
      <point x="604" y="1067" type="line"/>
      <point x="774" y="1067" type="line"/>
    </contour>
    <contour>
      <point x="262" y="1556" type="line"/>
      <point x="262" y="0" type="line"/>
      <point x="100" y="0" type="line"/>
      <point x="100" y="1511" type="line"/>
    </contour>
  </outline>
</glyph>
<glyph name="v" format="1">
  <advance width="774.144"/>
  <unicode hex="0076"/>
  <outline>
    <contour>
      <point x="590" y="1067" type="line"/>
      <point x="741" y="1067" type="line"/>
      <point x="481" y="-10" type="line"/>
      <point x="293" y="-10" type="line"/>
      <point x="35" y="1067" type="line"/>
      <point x="197" y="1067" type="line"/>
      <point x="393" y="160" type="line"/>
    </contour>
  </outline>
</glyph>
<glyph name="w" format="1">
  <advance width="1261.568"/>
  <unicode hex="0077"/>
  <outline>
    <contour>
      <point x="1073" y="1067" type="line"/>
      <point x="1223" y="1067" type="line"/>
      <point x="977" y="-8" type="line"/>
      <point x="807" y="-8" type="line"/>
      <point x="633" y="840" type="line"/>
      <point x="455" y="-8" type="line"/>
      <point x="285" y="-8" type="line"/>
      <point x="37" y="1067" type="line"/>
      <point x="197" y="1067" type="line"/>
      <point x="379" y="193" type="line"/>
      <point x="553" y="1067" type="line"/>
      <point x="717" y="1067" type="line"/>
      <point x="891" y="193" type="line"/>
    </contour>
  </outline>
</glyph>
<glyph name="braceright" format="1">
  <advance width="647.168"/>
  <unicode hex="007D"/>
  <outline>
    <contour>
      <point x="614" y="700" type="qcurve"/>
      <point x="614" y="610" type="line"/>
      <point x="524.447761194" y="610.0"/>
      <point x="401.0" y="516.208955224"/>
      <point x="401" y="408" type="qcurve" smooth="yes"/>
      <point x="401.0" y="341.582089552"/>
      <point x="434.0" y="160.656716418"/>
      <point x="434" y="92" type="qcurve" smooth="yes"/>
      <point x="434.0" y="-36.3582089552"/>
      <point x="313.656716418" y="-164.0"/>
      <point x="195" y="-164" type="qcurve" smooth="yes"/>
      <point x="51" y="-164" type="line"/>
      <point x="51" y="-78" type="line"/>
      <point x="145" y="-78" type="line" smooth="yes"/>
      <point x="220.373134328" y="-78.0"/>
      <point x="289.0" y="3.67164179104"/>
      <point x="289" y="88" type="qcurve" smooth="yes"/>
      <point x="289.0" y="149.194029851"/>
      <point x="258.0" y="320.373134328"/>
      <point x="258" y="395" type="qcurve" smooth="yes"/>
      <point x="258.0" y="512.910447761"/>
      <point x="365.343283582" y="617.895522388"/>
      <point x="434" y="647" type="qcurve"/>
      <point x="434" y="664" type="line"/>
      <point x="365.343283582" y="692.358208955"/>
      <point x="258.0" y="797.835820896"/>
      <point x="258" y="915" type="qcurve" smooth="yes"/>
      <point x="258.0" y="990.373134328"/>
      <point x="289.0" y="1161.80597015"/>
      <point x="289" y="1223" type="qcurve" smooth="yes"/>
      <point x="289.0" y="1306.58208955"/>
      <point x="220.373134328" y="1389.0"/>
      <point x="145" y="1389" type="qcurve" smooth="yes"/>
      <point x="51" y="1389" type="line"/>
      <point x="51" y="1475" type="line"/>
      <point x="195" y="1475" type="line" smooth="yes"/>
      <point x="313.656716418" y="1475.0"/>
      <point x="434.0" y="1347.35820896"/>
      <point x="434" y="1219" type="qcurve" smooth="yes"/>
      <point x="434.0" y="1149.59701493"/>
      <point x="401.0" y="968.671641791"/>
      <point x="401" y="903" type="qcurve" smooth="yes"/>
      <point x="401.0" y="794.791044776"/>
      <point x="524.447761194" y="700.0"/>
    </contour>
  </outline>
</glyph>
<glyph name="asciitilde" format="1">
  <advance width="622.592"/>
  <unicode hex="007E"/>
  <outline>
    <contour>
      <point x="492" y="684" type="qcurve"/>
      <point x="567" y="684" type="line"/>
      <point x="569.985074627" y="574.298507463"/>
      <point x="502.656716418" y="471.0"/>
      <point x="434" y="471" type="qcurve" smooth="yes"/>
      <point x="363.850746269" y="471.0"/>
      <point x="242.014925373" y="563.0"/>
      <point x="195" y="563" type="qcurve" smooth="yes"/>
      <point x="161.417910448" y="563.0"/>
      <point x="131.0" y="519.776119403"/>
      <point x="131" y="475" type="qcurve"/>
      <point x="53" y="475" type="line"/>
      <point x="50.0149253731" y="583.955223881"/>
      <point x="117.850746269" y="688.0"/>
      <point x="188" y="688" type="qcurve" smooth="yes"/>
      <point x="260.388059701" y="688.0"/>
      <point x="382.47761194" y="596.0"/>
      <point x="428" y="596" type="qcurve" smooth="yes"/>
      <point x="461.582089552" y="596.0"/>
      <point x="492.0" y="638.47761194"/>
    </contour>
  </outline>
</glyph>
<glyph name="sterling" format="1">
  <advance width="935.936"/>
  <unicode hex="00A3"/>
  <outline>
    <contour>
      <point x="793" y="399" type="qcurve"/>
      <point x="899" y="354" type="line"/>
      <point x="868.402985075" y="161.462686567"/>
      <point x="732.194029851" y="-12.0"/>
      <point x="621" y="-12" type="qcurve" smooth="yes"/>
      <point x="548.611940299" y="-12.0"/>
      <point x="402.626865672" y="60.8208955224"/>
      <point x="328" y="125" type="qcurve"/>
      <point x="281.731343284" y="74.2537313433"/>
      <point x="153.611940299" y="5.91044776119"/>
      <point x="76" y="-12" type="qcurve"/>
      <point x="76" y="119" type="line"/>
      <point x="169.28358209" y="146.611940299"/>
      <point x="281.0" y="295.731343284"/>
      <point x="281" y="442" type="qcurve" smooth="yes"/>
      <point x="281.0" y="507.671641791"/>
      <point x="262.447761194" y="628.268656716"/>
      <point x="252" y="682" type="qcurve"/>
      <point x="63" y="682" type="line"/>
      <point x="63" y="782" type="line"/>
      <point x="225" y="782" type="line"/>
      <point x="204.104477612" y="863.343283582"/>
      <point x="162.0" y="1032.20895522"/>
      <point x="162" y="1124" type="qcurve" smooth="yes"/>
      <point x="162.0" y="1298.62686567"/>
      <point x="348.537313433" y="1499.0"/>
      <point x="506" y="1499" type="qcurve" smooth="yes"/>
      <point x="649.28358209" y="1499.0"/>
      <point x="805.253731343" y="1351.41791045"/>
      <point x="856" y="1235" type="qcurve"/>
      <point x="725" y="1167" type="line"/>
      <point x="683.955223881" y="1261.7761194"/>
      <point x="587.104477612" y="1364.0"/>
      <point x="508" y="1364" type="qcurve" smooth="yes"/>
      <point x="420.686567164" y="1364.0"/>
      <point x="322.0" y="1232.44776119"/>
      <point x="322" y="1122" type="qcurve" smooth="yes"/>
      <point x="322.0" y="1041.40298507"/>
      <point x="365.865671642" y="869.313432836"/>
      <point x="389" y="782" type="qcurve"/>
      <point x="694" y="782" type="line"/>
      <point x="694" y="682" type="line"/>
      <point x="414" y="682" type="line"/>
      <point x="424.447761194" y="626.776119403"/>
      <point x="438.0" y="508.179104478"/>
      <point x="438" y="444" type="qcurve" smooth="yes"/>
      <point x="438.0" y="381.313432836"/>
      <point x="417.656716418" y="275.776119403"/>
      <point x="399" y="231" type="qcurve"/>
      <point x="455.71641791" y="176.52238806"/>
      <point x="564.985074627" y="125.0"/>
      <point x="612" y="125" type="qcurve" smooth="yes"/>
      <point x="681.402985075" y="125.0"/>
      <point x="765.388059701" y="246.76119403"/>
    </contour>
  </outline>
</glyph>
<glyph name="yen" format="1">
  <advance width="989.184"/>
  <unicode hex="00A5"/>
  <outline>
    <contour>
      <point x="795" y="1475" type="line"/>
      <point x="956" y="1475" type="line"/>
      <point x="664" y="788" type="line"/>
      <point x="885" y="788" type="line"/>
      <point x="885" y="690" type="line"/>
      <point x="625" y="690" type="line"/>
      <point x="575" y="575" type="line"/>
      <point x="575" y="436" type="line"/>
      <point x="885" y="436" type="line"/>
      <point x="885" y="338" type="line"/>
      <point x="575" y="338" type="line"/>
      <point x="575" y="0" type="line"/>
      <point x="414" y="0" type="line"/>
      <point x="414" y="338" type="line"/>
      <point x="104" y="338" type="line"/>
      <point x="104" y="436" type="line"/>
      <point x="414" y="436" type="line"/>
      <point x="414" y="573" type="line"/>
      <point x="360" y="690" type="line"/>
      <point x="104" y="690" type="line"/>
      <point x="104" y="788" type="line"/>
      <point x="322" y="788" type="line"/>
      <point x="31" y="1475" type="line"/>
      <point x="211" y="1475" type="line"/>
      <point x="504" y="727" type="line"/>
    </contour>
  </outline>
</glyph>
<glyph name="copyright" format="1">
  <advance width="1345.536"/>
  <unicode hex="00A9"/>
  <outline>
    <contour>
      <point x="795" y="618" type="qcurve"/>
      <point x="905" y="590" type="line"/>
      <point x="881.865671642" y="458.656716418"/>
      <point x="771.223880597" y="315.0"/>
      <point x="666" y="315" type="qcurve" smooth="yes"/>
      <point x="555.552238806" y="315.0"/>
      <point x="422.0" y="515.134328358"/>
      <point x="422" y="692" type="qcurve" smooth="yes"/>
      <point x="422" y="799" type="line" smooth="yes"/>
      <point x="422.0" y="977.358208955"/>
      <point x="555.552238806" y="1178.0"/>
      <point x="666" y="1178" type="qcurve" smooth="yes"/>
      <point x="769.731343284" y="1178.0"/>
      <point x="877.865671642" y="1040.14925373"/>
      <point x="901" y="920" type="qcurve"/>
      <point x="788" y="889" type="line"/>
      <point x="773.074626866" y="986.76119403"/>
      <point x="717.492537313" y="1083.0"/>
      <point x="666" y="1083" type="qcurve" smooth="yes"/>
      <point x="601.820895522" y="1083.0"/>
      <point x="543.0" y="926.910447761"/>
      <point x="543" y="809" type="qcurve" smooth="yes"/>
      <point x="543" y="686" type="line" smooth="yes"/>
      <point x="543.0" y="565.104477612"/>
      <point x="606.805970149" y="412.0"/>
      <point x="668" y="412" type="qcurve" smooth="yes"/>
      <point x="720.985074627" y="412.0"/>
      <point x="777.835820896" y="515.76119403"/>
    </contour>
    <contour>
      <point x="674" y="1499" type="qcurve" smooth="yes"/>
      <point x="936.686567164" y="1499.0"/>
      <point x="1278.0" y="1064.6119403"/>
      <point x="1278" y="737" type="qcurve" smooth="yes"/>
      <point x="1278.0" y="411.626865672"/>
      <point x="936.179104478" y="-25.0"/>
      <point x="672" y="-25" type="qcurve" smooth="yes"/>
      <point x="410.805970149" y="-25.0"/>
      <point x="70.0" y="410.134328358"/>
      <point x="70" y="737" type="qcurve" smooth="yes"/>
      <point x="70.0" y="1064.6119403"/>
      <point x="411.313432836" y="1499.0"/>
    </contour>
    <contour>
      <point x="674" y="33" type="qcurve" smooth="yes"/>
      <point x="915.044776119" y="33.0"/>
      <point x="1212.0" y="436.253731343"/>
      <point x="1212" y="737" type="qcurve" smooth="yes"/>
      <point x="1212.0" y="1037.0"/>
      <point x="913.044776119" y="1442.0"/>
      <point x="672" y="1442" type="qcurve" smooth="yes"/>
      <point x="430.208955224" y="1442.0"/>
      <point x="133.0" y="1038.49253731"/>
      <point x="133" y="737" type="qcurve" smooth="yes"/>
      <point x="133.0" y="437.746268657"/>
      <point x="430.71641791" y="33.0"/>
    </contour>
  </outline>
</glyph>
<glyph name="guillemotleft" format="1">
  <advance width="761.856"/>
  <unicode hex="00AB"/>
  <outline>
    <contour>
      <point x="203" y="532" type="line"/>
      <point x="383" y="156" type="line"/>
      <point x="291" y="156" type="line"/>
      <point x="33" y="532" type="line"/>
      <point x="291" y="911" type="line"/>
      <point x="383" y="911" type="line"/>
    </contour>
    <contour>
      <point x="522" y="532" type="line"/>
      <point x="705" y="156" type="line"/>
      <point x="612" y="156" type="line"/>
      <point x="354" y="532" type="line"/>
      <point x="612" y="911" type="line"/>
      <point x="705" y="911" type="line"/>
    </contour>
  </outline>
</glyph>
<glyph name="degree" format="1">
  <advance width="669.696"/>
  <unicode hex="00B0"/>
  <outline>
    <contour>
      <point x="338" y="1483" type="qcurve" smooth="yes"/>
      <point x="446.208955224" y="1483.0"/>
      <point x="592.0" y="1341.20895522"/>
      <point x="592" y="1233" type="qcurve" smooth="yes"/>
      <point x="592.0" y="1124.04477612"/>
      <point x="446.208955224" y="983.0"/>
      <point x="338" y="983" type="qcurve" smooth="yes"/>
      <point x="229.791044776" y="983.0"/>
      <point x="84.0" y="1124.04477612"/>
      <point x="84" y="1233" type="qcurve" smooth="yes"/>
      <point x="84.0" y="1341.20895522"/>
      <point x="229.791044776" y="1483.0"/>
    </contour>
    <contour>
      <point x="338" y="1065" type="qcurve" smooth="yes"/>
      <point x="408.149253731" y="1065.0"/>
      <point x="498.0" y="1161.35820896"/>
      <point x="498" y="1233" type="qcurve" smooth="yes"/>
      <point x="498.0" y="1304.64179104"/>
      <point x="408.149253731" y="1399.0"/>
      <point x="338" y="1399" type="qcurve" smooth="yes"/>
      <point x="269.343283582" y="1399.0"/>
      <point x="180.0" y="1304.64179104"/>
      <point x="180" y="1233" type="qcurve" smooth="yes"/>
      <point x="180.0" y="1161.35820896"/>
      <point x="269.343283582" y="1065.0"/>
    </contour>
  </outline>
</glyph>
<glyph name="acute" format="1">
  <advance width="804.864"/>
  <unicode hex="00B4"/>
  <outline>
    <contour>
      <point x="397" y="1438" type="line"/>
      <point x="590" y="1438" type="line"/>
      <point x="360" y="1186" type="line"/>
      <point x="256" y="1186" type="line"/>
    </contour>
  </outline>
</glyph>
<glyph name="paragraph" format="1">
  <advance width="894.976"/>
  <unicode hex="00B6"/>
  <outline>
    <contour>
      <point x="772" y="1475" type="line"/>
      <point x="772" y="0" type="line"/>
      <point x="684" y="0" type="line"/>
      <point x="684" y="1389" type="line"/>
      <point x="518" y="1389" type="line"/>
      <point x="518" y="0" type="line"/>
      <point x="430" y="0" type="line"/>
      <point x="430" y="717" type="line"/>
      <point x="268.059701493" y="728.940298507"/>
      <point x="51.0" y="912.447761194"/>
      <point x="51" y="1102" type="qcurve" smooth="yes"/>
      <point x="51.0" y="1290.05970149"/>
      <point x="273.388059701" y="1475.0"/>
      <point x="451" y="1475" type="qcurve" smooth="yes"/>
    </contour>
  </outline>
</glyph>
<glyph name="periodcentered" format="1">
  <advance width="344.064"/>
  <unicode hex="00B7"/>
  <outline>
    <contour>
      <point x="172" y="672" type="qcurve" smooth="yes"/>
      <point x="216.029850746" y="672.0"/>
      <point x="274.0" y="613.776119403"/>
      <point x="274" y="569" type="qcurve" smooth="yes"/>
      <point x="274.0" y="524.970149254"/>
      <point x="216.029850746" y="467.0"/>
      <point x="172" y="467" type="qcurve" smooth="yes"/>
      <point x="127.970149254" y="467.0"/>
      <point x="70.0" y="524.970149254"/>
      <point x="70" y="569" type="qcurve" smooth="yes"/>
      <point x="70.0" y="613.776119403"/>
      <point x="127.970149254" y="672.0"/>
    </contour>
  </outline>
</glyph>
<glyph name="cedilla" format="1">
  <advance width="804.864"/>
  <unicode hex="00B8"/>
  <outline>
    <contour>
      <point x="477" y="-76" type="qcurve" smooth="yes"/>
      <point x="532.223880597" y="-76.0"/>
      <point x="598.0" y="-127.492537313"/>
      <point x="598" y="-176" type="qcurve" smooth="yes"/>
      <point x="598.0" y="-257.343283582"/>
      <point x="415.089552239" y="-336.47761194"/>
      <point x="233" y="-332" type="qcurve"/>
      <point x="233" y="-287" type="line"/>
      <point x="377.029850746" y="-284.014925373"/>
      <point x="494.0" y="-236.552238806"/>
      <point x="494" y="-197" type="qcurve" smooth="yes"/>
      <point x="494.0" y="-175.358208955"/>
      <point x="462.597014925" y="-150.0"/>
      <point x="432" y="-150" type="qcurve" smooth="yes"/>
      <point x="407.373134328" y="-150.0"/>
      <point x="364.149253731" y="-159.552238806"/>
      <point x="344" y="-170" type="qcurve"/>
      <point x="303" y="-141" type="line"/>
      <point x="387" y="0" type="line"/>
      <point x="453" y="0" type="line"/>
      <point x="399" y="-88" type="line"/>
      <point x="414.671641791" y="-82.0298507463"/>
      <point x="453.865671642" y="-76.0"/>
    </contour>
  </outline>
</glyph>
<glyph name="ordmasculine" format="1">
  <advance width="591.872"/>
  <unicode hex="00BA"/>
  <outline>
    <contour>
      <point x="528" y="1194" type="qcurve" smooth="yes"/>
      <point x="528" y="1167" type="line" smooth="yes"/>
      <point x="528.0" y="1034.1641791"/>
      <point x="402.223880597" y="870.0"/>
      <point x="297" y="870" type="qcurve" smooth="yes"/>
      <point x="191.776119403" y="870.0"/>
      <point x="63.0" y="1034.1641791"/>
      <point x="63" y="1167" type="qcurve"/>
      <point x="61.5074626866" y="1168.49253731"/>
      <point x="61.5074626866" y="1192.50746269"/>
      <point x="63" y="1194" type="qcurve"/>
      <point x="63.0" y="1325.34328358"/>
      <point x="191.776119403" y="1487.0"/>
      <point x="297" y="1487" type="qcurve" smooth="yes"/>
      <point x="402.223880597" y="1487.0"/>
      <point x="528.0" y="1325.34328358"/>
    </contour>
    <contour>
      <point x="297" y="956" type="qcurve" smooth="yes"/>
      <point x="352.223880597" y="956.0"/>
      <point x="412.0" y="1065.71641791"/>
      <point x="412" y="1159" type="qcurve" smooth="yes"/>
      <point x="412" y="1196" type="line" smooth="yes"/>
      <point x="412.0" y="1289.28358209"/>
      <point x="352.223880597" y="1403.0"/>
      <point x="297" y="1403" type="qcurve" smooth="yes"/>
      <point x="240.28358209" y="1403.0"/>
      <point x="180.0" y="1293.28358209"/>
      <point x="180" y="1200" type="qcurve"/>
      <point x="178.507462687" y="1198.50746269"/>
      <point x="178.507462687" y="1164.49253731"/>
      <point x="180" y="1163" type="qcurve"/>
      <point x="180.0" y="1069.71641791"/>
      <point x="240.28358209" y="956.0"/>
    </contour>
    <contour>
      <point x="518" y="772" type="line"/>
      <point x="518" y="692" type="line"/>
      <point x="74" y="692" type="line"/>
      <point x="74" y="772" type="line"/>
    </contour>
  </outline>
</glyph>
<glyph name="guillemotright" format="1">
  <advance width="761.856"/>
  <unicode hex="00BB"/>
  <outline>
    <contour>
      <point x="150" y="911" type="line"/>
      <point x="408" y="532" type="line"/>
      <point x="150" y="156" type="line"/>
      <point x="55" y="156" type="line"/>
      <point x="238" y="532" type="line"/>
      <point x="55" y="911" type="line"/>
    </contour>
    <contour>
      <point x="469" y="911" type="line"/>
      <point x="727" y="532" type="line"/>
      <point x="469" y="156" type="line"/>
      <point x="379" y="156" type="line"/>
      <point x="559" y="532" type="line"/>
      <point x="379" y="911" type="line"/>
    </contour>
  </outline>
</glyph>
<glyph name="questiondown" format="1">
  <advance width="757.76"/>
  <unicode hex="00BF"/>
  <outline>
    <contour>
      <point x="592" y="348" type="qcurve"/>
      <point x="725" y="301" type="line"/>
      <point x="689.925373134" y="145.029850746"/>
      <point x="521.776119403" y="-25.0"/>
      <point x="377" y="-25" type="qcurve" smooth="yes"/>
      <point x="229.985074627" y="-25.0"/>
      <point x="63.0" y="167.52238806"/>
      <point x="63" y="322" type="qcurve" smooth="yes"/>
      <point x="63.0" y="453.343283582"/>
      <point x="151.701492537" y="613.268656716"/>
      <point x="242" y="717" type="qcurve" smooth="yes"/>
      <point x="310.656716418" y="796.104477612"/>
      <point x="361.268656716" y="936.701492537"/>
      <point x="365" y="1077" type="qcurve"/>
      <point x="457" y="1077" type="line"/>
      <point x="468.940298507" y="898.641791045"/>
      <point x="423.820895522" y="716.985074627"/>
      <point x="338" y="614" type="qcurve" smooth="yes"/>
      <point x="278.298507463" y="540.865671642"/>
      <point x="223.0" y="409.104477612"/>
      <point x="223" y="330" type="qcurve" smooth="yes"/>
      <point x="223.0" y="230.746268657"/>
      <point x="310.373134328" y="109.0"/>
      <point x="385" y="109" type="qcurve" smooth="yes"/>
      <point x="461.119402985" y="109.0"/>
      <point x="558.417910448" y="222.626865672"/>
    </contour>
    <contour>
      <point x="408" y="1489" type="qcurve" smooth="yes"/>
      <point x="453.52238806" y="1489.0"/>
      <point x="510.0" y="1430.7761194"/>
      <point x="510" y="1386" type="qcurve" smooth="yes"/>
      <point x="510.0" y="1341.97014925"/>
      <point x="453.52238806" y="1284.0"/>
      <point x="408" y="1284" type="qcurve" smooth="yes"/>
      <point x="364.71641791" y="1284.0"/>
      <point x="305.0" y="1341.97014925"/>
      <point x="305" y="1386" type="qcurve" smooth="yes"/>
      <point x="305.0" y="1430.7761194"/>
      <point x="364.71641791" y="1489.0"/>
    </contour>
  </outline>
</glyph>
<glyph name="Aring" format="1">
  <advance width="1089.536"/>
  <unicode hex="00C5"/>
  <outline>
    <contour>
      <point x="547" y="1847" type="qcurve" smooth="yes"/>
      <point x="615.656716418" y="1847.0"/>
      <point x="709.0" y="1759.67164179"/>
      <point x="709" y="1694" type="qcurve" smooth="yes"/>
      <point x="709.0" y="1629.82089552"/>
      <point x="615.656716418" y="1542.0"/>
      <point x="547" y="1542" type="qcurve" smooth="yes"/>
      <point x="475.358208955" y="1542.0"/>
      <point x="383.0" y="1629.82089552"/>
      <point x="383" y="1694" type="qcurve" smooth="yes"/>
      <point x="383.0" y="1759.67164179"/>
      <point x="475.358208955" y="1847.0"/>
    </contour>
    <contour>
      <point x="547" y="1599" type="qcurve" smooth="yes"/>
      <point x="585.059701493" y="1599.0"/>
      <point x="635.0" y="1657.94029851"/>
      <point x="635" y="1696" type="qcurve" smooth="yes"/>
      <point x="635.0" y="1734.05970149"/>
      <point x="585.059701493" y="1788.0"/>
      <point x="547" y="1788" type="qcurve" smooth="yes"/>
      <point x="508.940298507" y="1788.0"/>
      <point x="459.0" y="1734.05970149"/>
      <point x="459" y="1696" type="qcurve" smooth="yes"/>
      <point x="459.0" y="1657.94029851"/>
      <point x="508.940298507" y="1599.0"/>
    </contour>
    <contour>
      <point x="662" y="1483" type="line"/>
      <point x="1051" y="0" type="line"/>
      <point x="877" y="0" type="line"/>
      <point x="782" y="379" type="line"/>
      <point x="299" y="379" type="line"/>
      <point x="205" y="0" type="line"/>
      <point x="37" y="0" type="line"/>
      <point x="428" y="1483" type="line"/>
    </contour>
    <contour>
      <point x="324" y="504" type="line"/>
      <point x="758" y="504" type="line"/>
      <point x="547" y="1331" type="line"/>
      <point x="537" y="1331" type="line"/>
    </contour>
  </outline>
</glyph>
<glyph name="Ccedilla" format="1">
  <advance width="940.032"/>
  <unicode hex="00C7"/>
  <outline>
    <contour>
      <point x="733" y="471" type="qcurve"/>
      <point x="887" y="434" type="line"/>
      <point x="853.417910448" y="226.537313433"/>
      <point x="680.417910448" y="-16.7910447761"/>
      <point x="514" y="-25" type="qcurve"/>
      <point x="475" y="-88" type="line"/>
      <point x="492.164179104" y="-82.0298507463"/>
      <point x="529.865671642" y="-76.0"/>
      <point x="553" y="-76" type="qcurve" smooth="yes"/>
      <point x="608.223880597" y="-76.0"/>
      <point x="674.0" y="-127.492537313"/>
      <point x="674" y="-176" type="qcurve" smooth="yes"/>
      <point x="674.0" y="-257.343283582"/>
      <point x="491.089552239" y="-336.47761194"/>
      <point x="309" y="-332" type="qcurve"/>
      <point x="309" y="-287" type="line"/>
      <point x="453.029850746" y="-284.014925373"/>
      <point x="569.0" y="-236.552238806"/>
      <point x="569" y="-197" type="qcurve" smooth="yes"/>
      <point x="569.0" y="-175.358208955"/>
      <point x="539.104477612" y="-150.0"/>
      <point x="510" y="-150" type="qcurve" smooth="yes"/>
      <point x="485.373134328" y="-150.0"/>
      <point x="441.641791045" y="-159.552238806"/>
      <point x="420" y="-170" type="qcurve"/>
      <point x="379" y="-141" type="line"/>
      <point x="451" y="-23" type="line"/>
      <point x="277.865671642" y="-5.83582089552"/>
      <point x="78.0" y="346.223880597"/>
      <point x="78" y="641" type="qcurve" smooth="yes"/>
      <point x="78" y="831" type="line" smooth="yes"/>
      <point x="78.0" y="1142.94029851"/>
      <point x="302.447761194" y="1499.0"/>
      <point x="492" y="1499" type="qcurve" smooth="yes"/>
      <point x="662.895522388" y="1499.0"/>
      <point x="846.910447761" y="1265.0"/>
      <point x="879" y="1065" type="qcurve"/>
      <point x="721" y="1022" type="line"/>
      <point x="694.880597015" y="1192.89552239"/>
      <point x="589.76119403" y="1368.0"/>
      <point x="492" y="1368" type="qcurve" smooth="yes"/>
      <point x="368.119402985" y="1368.0"/>
      <point x="248.0" y="1074.62686567"/>
      <point x="248" y="850" type="qcurve" smooth="yes"/>
      <point x="248" y="629" type="line" smooth="yes"/>
      <point x="248.0" y="399.895522388"/>
      <point x="373.611940299" y="106.0"/>
      <point x="496" y="106" type="qcurve" smooth="yes"/>
      <point x="593.76119403" y="106.0"/>
      <point x="702.402985075" y="285.925373134"/>
    </contour>
  </outline>
</glyph>
<glyph name="Thorn" format="1">
  <advance width="923.648"/>
  <unicode hex="00DE"/>
  <outline>
    <contour>
      <point x="424" y="1194" type="line" smooth="yes"/>
      <point x="633.701492537" y="1194.0"/>
      <point x="870.0" y="972.955223881"/>
      <point x="870" y="764" type="qcurve" smooth="yes"/>
      <point x="870.0" y="551.313432836"/>
      <point x="634.179104478" y="324.0"/>
      <point x="420" y="324" type="qcurve" smooth="yes"/>
      <point x="291" y="324" type="line"/>
      <point x="291" y="0" type="line"/>
      <point x="121" y="0" type="line"/>
      <point x="121" y="1475" type="line"/>
      <point x="291" y="1475" type="line"/>
      <point x="291" y="1194" type="line"/>
    </contour>
    <contour>
      <point x="436" y="453" type="line" smooth="yes"/>
      <point x="568.835820896" y="453.0"/>
      <point x="707.0" y="610.0"/>
      <point x="707" y="760" type="qcurve" smooth="yes"/>
      <point x="707.0" y="906.268656716"/>
      <point x="567.313432836" y="1065.0"/>
      <point x="430" y="1065" type="qcurve" smooth="yes"/>
      <point x="289" y="1065" type="line"/>
      <point x="289" y="453" type="line"/>
    </contour>
  </outline>
</glyph>
<glyph name="germandbls" format="1">
  <advance width="962.56"/>
  <unicode hex="00DF"/>
  <outline>
    <contour>
      <point x="596" y="842" type="line"/>
      <point x="718.388059701" y="798.71641791"/>
      <point x="905.0" y="569.537313433"/>
      <point x="905" y="377" type="qcurve" smooth="yes"/>
      <point x="905.0" y="184.462686567"/>
      <point x="729.343283582" y="-18.0"/>
      <point x="598" y="-18" type="qcurve" smooth="yes"/>
      <point x="516.656716418" y="-18.0"/>
      <point x="418.552238806" y="34.7164179104"/>
      <point x="379" y="78" type="qcurve"/>
      <point x="418" y="186" type="line"/>
      <point x="448.597014925" y="147.940298507"/>
      <point x="518.014925373" y="98.0"/>
      <point x="571" y="98" type="qcurve" smooth="yes"/>
      <point x="640.402985075" y="98.0"/>
      <point x="745.0" y="239.179104478"/>
      <point x="745" y="375" type="qcurve" smooth="yes"/>
      <point x="745.0" y="550.373134328"/>
      <point x="577.462686567" y="767.865671642"/>
      <point x="420" y="791" type="qcurve"/>
      <point x="420" y="897" type="line"/>
      <point x="534.179104478" y="902.970149254"/>
      <point x="645.0" y="1074.56716418"/>
      <point x="645" y="1188" type="qcurve" smooth="yes"/>
      <point x="645.0" y="1293.2238806"/>
      <point x="552.791044776" y="1442.0"/>
      <point x="461" y="1442" type="qcurve" smooth="yes"/>
      <point x="363.23880597" y="1442.0"/>
      <point x="268.0" y="1289.7761194"/>
      <point x="268" y="1145" type="qcurve" smooth="yes"/>
      <point x="268" y="0" type="line"/>
      <point x="102" y="0" type="line"/>
      <point x="102" y="1126" type="line" smooth="yes"/>
      <point x="102.0" y="1338.68656716"/>
      <point x="302.552238806" y="1554.0"/>
      <point x="463" y="1554" type="qcurve" smooth="yes"/>
      <point x="618.970149254" y="1554.0"/>
      <point x="801.0" y="1352.98507463"/>
      <point x="801" y="1200" type="qcurve" smooth="yes"/>
      <point x="801.0" y="1061.19402985"/>
      <point x="675.104477612" y="886.089552239"/>
      <point x="596" y="854" type="qcurve"/>
    </contour>
  </outline>
</glyph>
<glyph name="ae" format="1">
  <advance width="1251.328"/>
  <unicode hex="00E6"/>
  <outline>
    <contour>
      <point x="1190" y="541" type="qcurve" smooth="yes"/>
      <point x="1190" y="498" type="line"/>
      <point x="686" y="498" type="line"/>
      <point x="686" y="465" type="line" smooth="yes"/>
      <point x="686.0" y="290.373134328"/>
      <point x="807.776119403" y="104.0"/>
      <point x="913" y="104" type="qcurve" smooth="yes"/>
      <point x="972.701492537" y="104.0"/>
      <point x="1088.25373134" y="160.253731343"/>
      <point x="1139" y="211" type="qcurve"/>
      <point x="1188" y="109" type="line"/>
      <point x="1128.29850746" y="52.2835820896"/>
      <point x="981.298507463" y="-18.0"/>
      <point x="891" y="-18" type="qcurve" smooth="yes"/>
      <point x="791.746268657" y="-18.0"/>
      <point x="639.044776119" y="82.2089552239"/>
      <point x="598" y="174" type="qcurve"/>
      <point x="594" y="174" type="line"/>
      <point x="534.298507463" y="79.223880597"/>
      <point x="378.313432836" y="-14.0"/>
      <point x="291" y="-14" type="qcurve" smooth="yes"/>
      <point x="187.268656716" y="-14.0"/>
      <point x="45.0" y="124.179104478"/>
      <point x="45" y="260" type="qcurve" smooth="yes"/>
      <point x="45.0" y="410.0"/>
      <point x="286.47761194" y="615.358208955"/>
      <point x="532" y="637" type="qcurve"/>
      <point x="532" y="778" type="line" smooth="yes"/>
      <point x="532.0" y="868.298507463"/>
      <point x="466.671641791" y="956.0"/>
      <point x="401" y="956" type="qcurve" smooth="yes"/>
      <point x="342.044776119" y="956.0"/>
      <point x="225.134328358" y="910.776119403"/>
      <point x="152" y="866" type="qcurve"/>
      <point x="104" y="971" type="line"/>
      <point x="179.373134328" y="1016.52238806"/>
      <point x="343.731343284" y="1077.0"/>
      <point x="440" y="1077" type="qcurve" smooth="yes"/>
      <point x="536.268656716" y="1077.0"/>
      <point x="621.298507463" y="985.835820896"/>
      <point x="631" y="903" type="qcurve"/>
      <point x="641" y="903" type="line"/>
      <point x="671.597014925" y="985.835820896"/>
      <point x="791.402985075" y="1087.0"/>
      <point x="872" y="1087" type="qcurve" smooth="yes"/>
      <point x="1020.50746269" y="1087.0"/>
      <point x="1190.0" y="788.014925373"/>
    </contour>
    <contour>
      <point x="348" y="94" type="qcurve" smooth="yes"/>
      <point x="401.731343284" y="94.0"/>
      <point x="515.47761194" y="171.194029851"/>
      <point x="561" y="260" type="qcurve"/>
      <point x="549.059701493" y="302.537313433"/>
      <point x="537.0" y="414.820895522"/>
      <point x="537" y="479" type="qcurve" smooth="yes"/>
      <point x="537" y="557" type="line"/>
      <point x="353.417910448" y="538.343283582"/>
      <point x="199.0" y="378.253731343"/>
      <point x="199" y="279" type="qcurve" smooth="yes"/>
      <point x="199.0" y="191.686567164"/>
      <point x="282.328358209" y="94.0"/>
    </contour>
    <contour>
      <point x="686" y="584" type="line"/>
      <point x="1040" y="584" type="line"/>
      <point x="1037.01492537" y="765.343283582"/>
      <point x="946.358208955" y="979.0"/>
      <point x="868" y="979" type="qcurve" smooth="yes"/>
      <point x="781.432835821" y="979.0"/>
      <point x="686.0" y="772.089552239"/>
      <point x="686" y="590" type="qcurve" smooth="yes"/>
    </contour>
  </outline>
</glyph>
<glyph name="ccedilla" format="1">
  <advance width="743.424"/>
  <unicode hex="00E7"/>
  <outline>
    <contour>
      <point x="569" y="311" type="qcurve"/>
      <point x="698" y="279" type="line"/>
      <point x="671.134328358" y="148.402985075"/>
      <point x="531.164179104" y="-14.0298507463"/>
      <point x="414" y="-20" type="qcurve"/>
      <point x="373" y="-88" type="line"/>
      <point x="389.417910448" y="-82.0298507463"/>
      <point x="427.358208955" y="-76.0"/>
      <point x="449" y="-76" type="qcurve" smooth="yes"/>
      <point x="504.970149254" y="-76.0"/>
      <point x="571.0" y="-127.492537313"/>
      <point x="571" y="-176" type="qcurve" smooth="yes"/>
      <point x="571.0" y="-257.343283582"/>
      <point x="389.089552239" y="-336.47761194"/>
      <point x="207" y="-332" type="qcurve"/>
      <point x="207" y="-287" type="line"/>
      <point x="351.776119403" y="-284.014925373"/>
      <point x="469.0" y="-236.552238806"/>
      <point x="469" y="-197" type="qcurve" smooth="yes"/>
      <point x="469.0" y="-175.358208955"/>
      <point x="436.358208955" y="-150.0"/>
      <point x="408" y="-150" type="qcurve" smooth="yes"/>
      <point x="383.373134328" y="-150.0"/>
      <point x="338.641791045" y="-159.552238806"/>
      <point x="317" y="-170" type="qcurve"/>
      <point x="279" y="-141" type="line"/>
      <point x="352" y="-16" type="line"/>
      <point x="217.671641791" y="1.91044776119"/>
      <point x="63.0" y="269.029850746"/>
      <point x="63" y="475" type="qcurve" smooth="yes"/>
      <point x="63" y="588" type="line" smooth="yes"/>
      <point x="63.0" y="809.641791045"/>
      <point x="249.23880597" y="1087.0"/>
      <point x="397" y="1087" type="qcurve" smooth="yes"/>
      <point x="529.835820896" y="1087.0"/>
      <point x="670.119402985" y="911.850746269"/>
      <point x="694" y="782" type="qcurve"/>
      <point x="559" y="750" type="line"/>
      <point x="537.358208955" y="853.731343284"/>
      <point x="464.164179104" y="971.0"/>
      <point x="397" y="971" type="qcurve" smooth="yes"/>
      <point x="316.402985075" y="971.0"/>
      <point x="221.0" y="769.402985075"/>
      <point x="221" y="600" type="qcurve" smooth="yes"/>
      <point x="221" y="469" type="line" smooth="yes"/>
      <point x="221.0" y="299.597014925"/>
      <point x="320.179104478" y="94.0"/>
      <point x="406" y="94" type="qcurve" smooth="yes"/>
      <point x="464.955223881" y="94.0"/>
      <point x="548.104477612" y="205.776119403"/>
    </contour>
  </outline>
</glyph>
<glyph name="divide" format="1">
  <advance width="968.704"/>
  <unicode hex="00F7"/>
  <outline>
    <contour>
      <point x="485" y="469" type="qcurve" smooth="yes"/>
      <point x="529.776119403" y="469.0"/>
      <point x="590.0" y="410.52238806"/>
      <point x="590" y="365" type="qcurve" smooth="yes"/>
      <point x="590.0" y="320.223880597"/>
      <point x="529.776119403" y="262.0"/>
      <point x="485" y="262" type="qcurve" smooth="yes"/>
      <point x="439.47761194" y="262.0"/>
      <point x="379.0" y="320.223880597"/>
      <point x="379" y="365" type="qcurve" smooth="yes"/>
      <point x="379.0" y="410.52238806"/>
      <point x="439.47761194" y="469.0"/>
    </contour>
    <contour>
      <point x="485" y="1192" type="qcurve" smooth="yes"/>
      <point x="529.776119403" y="1192.0"/>
      <point x="590.0" y="1133.26865672"/>
      <point x="590" y="1087" type="qcurve" smooth="yes"/>
      <point x="590.0" y="1042.97014925"/>
      <point x="529.776119403" y="985.0"/>
      <point x="485" y="985" type="qcurve" smooth="yes"/>
      <point x="439.47761194" y="985.0"/>
      <point x="379.0" y="1042.97014925"/>
      <point x="379" y="1087" type="qcurve" smooth="yes"/>
      <point x="379.0" y="1133.26865672"/>
      <point x="439.47761194" y="1192.0"/>
    </contour>
    <contour>
      <point x="899" y="795" type="line"/>
      <point x="899" y="657" type="line"/>
      <point x="68" y="657" type="line"/>
      <point x="68" y="795" type="line"/>
    </contour>
  </outline>
</glyph>
<glyph name="dotlessi" format="1">
  <advance width="387.072"/>
  <unicode hex="0131"/>
  <outline>
    <contour>
      <point x="274" y="1067" type="line"/>
      <point x="274" y="0" type="line"/>
      <point x="113" y="0" type="line"/>
      <point x="113" y="1067" type="line"/>
    </contour>
  </outline>
</glyph>
<glyph name="oe" format="1">
  <advance width="1318.912"/>
  <unicode hex="0153"/>
  <outline>
    <contour>
      <point x="1260" y="541" type="qcurve" smooth="yes"/>
      <point x="1260" y="498" type="line"/>
      <point x="752" y="498" type="line"/>
      <point x="752" y="465" type="line" smooth="yes"/>
      <point x="752.0" y="288.880597015"/>
      <point x="877.776119403" y="104.0"/>
      <point x="983" y="104" type="qcurve" smooth="yes"/>
      <point x="1042.70149254" y="104.0"/>
      <point x="1158.0" y="160.253731343"/>
      <point x="1208" y="211" type="qcurve"/>
      <point x="1257" y="109" type="line"/>
      <point x="1198.04477612" y="52.2835820896"/>
      <point x="1049.56716418" y="-18.0"/>
      <point x="963" y="-18" type="qcurve" smooth="yes"/>
      <point x="861.507462687" y="-18.0"/>
      <point x="718.597014925" y="113.835820896"/>
      <point x="688" y="231" type="qcurve"/>
      <point x="676" y="231" type="line"/>
      <point x="645.402985075" y="119.805970149"/>
      <point x="508.746268657" y="-20.0"/>
      <point x="408" y="-20" type="qcurve" smooth="yes"/>
      <point x="250.537313433" y="-20.0"/>
      <point x="63.0" y="265.134328358"/>
      <point x="63" y="492" type="qcurve" smooth="yes"/>
      <point x="63" y="578" type="line" smooth="yes"/>
      <point x="63.0" y="802.626865672"/>
      <point x="252.537313433" y="1087.0"/>
      <point x="410" y="1087" type="qcurve" smooth="yes"/>
      <point x="507.76119403" y="1087.0"/>
      <point x="647.880597015" y="945.194029851"/>
      <point x="674" y="834" type="qcurve"/>
      <point x="686" y="834" type="line"/>
      <point x="713.611940299" y="946.686567164"/>
      <point x="850.208955224" y="1087.0"/>
      <point x="942" y="1087" type="qcurve" smooth="yes"/>
      <point x="1090.50746269" y="1087.0"/>
      <point x="1260.0" y="788.014925373"/>
    </contour>
    <contour>
      <point x="414" y="90" type="qcurve" smooth="yes"/>
      <point x="500.567164179" y="90.0"/>
      <point x="604.0" y="300.104477612"/>
      <point x="604" y="471" type="qcurve" smooth="yes"/>
      <point x="604" y="594" type="line" smooth="yes"/>
      <point x="604.0" y="766.388059701"/>
      <point x="498.059701493" y="977.0"/>
      <point x="410" y="977" type="qcurve" smooth="yes"/>
      <point x="321.194029851" y="977.0"/>
      <point x="221.0" y="766.388059701"/>
      <point x="221" y="594" type="qcurve" smooth="yes"/>
      <point x="221" y="471" type="line" smooth="yes"/>
      <point x="221.0" y="300.104477612"/>
      <point x="325.194029851" y="90.0"/>
    </contour>
    <contour>
      <point x="752" y="584" type="line"/>
      <point x="1110" y="584" type="line"/>
      <point x="1107.01492537" y="765.343283582"/>
      <point x="1015.6119403" y="979.0"/>
      <point x="938" y="979" type="qcurve" smooth="yes"/>
      <point x="850.686567164" y="979.0"/>
      <point x="752.0" y="772.089552239"/>
      <point x="752" y="590" type="qcurve" smooth="yes"/>
    </contour>
  </outline>
</glyph>
<glyph name="florin" format="1">
  <advance width="753.664"/>
  <unicode hex="0192"/>
  <outline>
    <contour>
      <point x="575" y="1487" type="qcurve" smooth="yes"/>
      <point x="627.23880597" y="1487.0"/>
      <point x="705.417910448" y="1470.68656716"/>
      <point x="739" y="1458" type="qcurve"/>
      <point x="731" y="1335" type="line"/>
      <point x="698.910447761" y="1349.17910448"/>
      <point x="640.567164179" y="1360.0"/>
      <point x="604" y="1360" type="qcurve" smooth="yes"/>
      <point x="548.776119403" y="1360.0"/>
      <point x="474.940298507" y="1284.32835821"/>
      <point x="463" y="1200" type="qcurve" smooth="yes"/>
      <point x="426" y="942" type="line"/>
      <point x="635" y="942" type="line"/>
      <point x="618" y="819" type="line"/>
      <point x="410" y="819" type="line"/>
      <point x="276" y="-147" type="line" smooth="yes"/>
      <point x="258.089552239" y="-283.567164179"/>
      <point x="121.805970149" y="-389.0"/>
      <point x="33" y="-389" type="qcurve" smooth="yes"/>
      <point x="-5.05970149254" y="-389.0"/>
      <point x="-74.6268656716" y="-376.462686567"/>
      <point x="-100" y="-369" type="qcurve"/>
      <point x="-82" y="-246" type="line"/>
      <point x="-61.8507462687" y="-253.462686567"/>
      <point x="-11.3731343284" y="-262.0"/>
      <point x="14" y="-262" type="qcurve" smooth="yes"/>
      <point x="55.7910447761" y="-262.0"/>
      <point x="112.044776119" y="-202.641791045"/>
      <point x="121" y="-131" type="qcurve" smooth="yes"/>
      <point x="252" y="819" type="line"/>
      <point x="88" y="819" type="line"/>
      <point x="106" y="942" type="line"/>
      <point x="270" y="942" type="line"/>
      <point x="307" y="1212" type="line" smooth="yes"/>
      <point x="327.149253731" y="1362.0"/>
      <point x="469.776119403" y="1487.0"/>
    </contour>
  </outline>
</glyph>
<glyph name="ogonek" format="1">
  <advance width="804.864"/>
  <unicode hex="02DB"/>
  <outline>
    <contour>
      <point x="584" y="-221" type="qcurve"/>
      <point x="606" y="-270" type="line"/>
      <point x="556.0" y="-297.611940299"/>
      <point x="452.731343284" y="-330.0"/>
      <point x="399" y="-330" type="qcurve" smooth="yes"/>
      <point x="322.880597015" y="-330.0"/>
      <point x="233.0" y="-261.686567164"/>
      <point x="233" y="-199" type="qcurve" smooth="yes"/>
      <point x="233.0" y="-142.28358209"/>
      <point x="319.835820896" y="-39.552238806"/>
      <point x="387" y="0" type="qcurve"/>
      <point x="463" y="0" type="line"/>
      <point x="403.298507463" y="-45.5223880597"/>
      <point x="344.0" y="-136.955223881"/>
      <point x="344" y="-178" type="qcurve" smooth="yes"/>
      <point x="344.0" y="-211.582089552"/>
      <point x="391.940298507" y="-254.0"/>
      <point x="430" y="-254" type="qcurve" smooth="yes"/>
      <point x="469.552238806" y="-254.0"/>
      <point x="540.71641791" y="-238.164179104"/>
    </contour>
  </outline>
</glyph>
<glyph name="emdash" format="1">
  <advance width="1626.112"/>
  <unicode hex="2014"/>
  <outline>
    <contour>
      <point x="1567" y="645" type="line"/>
      <point x="1567" y="512" type="line"/>
      <point x="59" y="512" type="line"/>
      <point x="59" y="645" type="line"/>
    </contour>
  </outline>
</glyph>
<glyph name="quoteleft" format="1">
  <advance width="329.728"/>
  <unicode hex="2018"/>
  <unicode hex="02BB"/>
  <outline>
    <contour>
      <point x="217" y="1475" type="line"/>
      <point x="279" y="1036" type="line"/>
      <point x="205" y="1036" type="line"/>
      <point x="51" y="1475" type="line"/>
    </contour>
  </outline>
</glyph>
<glyph name="quotedblleft" format="1">
  <advance width="622.592"/>
  <unicode hex="201C"/>
  <outline>
    <contour>
      <point x="215" y="1475" type="line"/>
      <point x="274" y="1036" type="line"/>
      <point x="205" y="1036" type="line"/>
      <point x="51" y="1475" type="line"/>
    </contour>
    <contour>
      <point x="496" y="1475" type="line"/>
      <point x="557" y="1036" type="line"/>
      <point x="487" y="1036" type="line"/>
      <point x="334" y="1475" type="line"/>
    </contour>
  </outline>
</glyph>
<glyph name="quotedblright" format="1">
  <advance width="622.592"/>
  <unicode hex="201D"/>
  <outline>
    <contour>
      <point x="127" y="1475" type="line"/>
      <point x="291" y="1475" type="line"/>
      <point x="137" y="1036" type="line"/>
      <point x="66" y="1036" type="line"/>
    </contour>
    <contour>
      <point x="410" y="1475" type="line"/>
      <point x="573" y="1475" type="line"/>
      <point x="420" y="1036" type="line"/>
      <point x="350" y="1036" type="line"/>
    </contour>
  </outline>
</glyph>
<glyph name="perthousand" format="1">
  <advance width="1908.736"/>
  <unicode hex="2030"/>
  <outline>
    <contour>
      <point x="328" y="1489" type="qcurve" smooth="yes"/>
      <point x="445.164179104" y="1489.0"/>
      <point x="604.0" y="1294.08955224"/>
      <point x="604" y="1112" type="qcurve" smooth="yes"/>
      <point x="604.0" y="932.895522388"/>
      <point x="442.656716418" y="735.0"/>
      <point x="324" y="735" type="qcurve" smooth="yes"/>
      <point x="206.089552239" y="735.0"/>
      <point x="49.0" y="931.402985075"/>
      <point x="49" y="1112" type="qcurve" smooth="yes"/>
      <point x="49.0" y="1292.59701493"/>
      <point x="208.597014925" y="1489.0"/>
    </contour>
    <contour>
      <point x="326" y="848" type="qcurve" smooth="yes"/>
      <point x="399.134328358" y="848.0"/>
      <point x="471.0" y="990.597014925"/>
      <point x="471" y="1110" type="qcurve" smooth="yes"/>
      <point x="471.0" y="1229.40298507"/>
      <point x="400.626865672" y="1374.0"/>
      <point x="326" y="1374" type="qcurve" smooth="yes"/>
      <point x="252.119402985" y="1374.0"/>
      <point x="182.0" y="1231.91044776"/>
      <point x="182" y="1114" type="qcurve" smooth="yes"/>
      <point x="182.0" y="994.597014925"/>
      <point x="252.119402985" y="848.0"/>
    </contour>
    <contour>
      <point x="958" y="739" type="qcurve" smooth="yes"/>
      <point x="1077.40298507" y="739.0"/>
      <point x="1235.0" y="544.850746269"/>
      <point x="1235" y="365" type="qcurve" smooth="yes"/>
      <point x="1235.0" y="184.402985075"/>
      <point x="1073.91044776" y="-14.0"/>
      <point x="956" y="-14" type="qcurve" smooth="yes"/>
      <point x="837.343283582" y="-14.0"/>
      <point x="680.0" y="182.910447761"/>
      <point x="680" y="365" type="qcurve" smooth="yes"/>
      <point x="680.0" y="541.865671642"/>
      <point x="840.835820896" y="739.0"/>
    </contour>
    <contour>
      <point x="956" y="100" type="qcurve" smooth="yes"/>
      <point x="1029.88059701" y="100.0"/>
      <point x="1104.0" y="243.343283582"/>
      <point x="1104" y="362" type="qcurve" smooth="yes"/>
      <point x="1104.0" y="481.402985075"/>
      <point x="1031.37313433" y="627.0"/>
      <point x="956" y="627" type="qcurve" smooth="yes"/>
      <point x="884.358208955" y="627.0"/>
      <point x="813.0" y="484.164179104"/>
      <point x="813" y="367" type="qcurve" smooth="yes"/>
      <point x="813.0" y="247.597014925"/>
      <point x="882.865671642" y="100.0"/>
    </contour>
    <contour>
      <point x="1585" y="739" type="qcurve" smooth="yes"/>
      <point x="1702.91044776" y="739.0"/>
      <point x="1862.0" y="544.850746269"/>
      <point x="1862" y="365" type="qcurve" smooth="yes"/>
      <point x="1862.0" y="184.402985075"/>
      <point x="1698.91044776" y="-14.0"/>
      <point x="1581" y="-14" type="qcurve" smooth="yes"/>
      <point x="1463.08955224" y="-14.0"/>
      <point x="1305.0" y="182.910447761"/>
      <point x="1305" y="365" type="qcurve" smooth="yes"/>
      <point x="1305.0" y="541.865671642"/>
      <point x="1465.59701493" y="739.0"/>
    </contour>
    <contour>
      <point x="1583" y="100" type="qcurve" smooth="yes"/>
      <point x="1656.13432836" y="100.0"/>
      <point x="1729.0" y="243.343283582"/>
      <point x="1729" y="362" type="qcurve" smooth="yes"/>
      <point x="1729.0" y="481.402985075"/>
      <point x="1656.13432836" y="627.0"/>
      <point x="1583" y="627" type="qcurve" smooth="yes"/>
      <point x="1509.86567164" y="627.0"/>
      <point x="1438.0" y="484.164179104"/>
      <point x="1438" y="367" type="qcurve" smooth="yes"/>
      <point x="1438.0" y="247.597014925"/>
      <point x="1508.37313433" y="100.0"/>
    </contour>
    <contour>
      <point x="930" y="1475" type="line"/>
      <point x="1069" y="1475" type="line"/>
      <point x="682" y="717" type="line"/>
      <point x="356" y="2" type="line"/>
      <point x="217" y="2" type="line"/>
      <point x="604" y="760" type="line"/>
    </contour>
  </outline>
</glyph>
<glyph name="guilsinglright" format="1">
  <advance width="425.984"/>
  <unicode hex="203A"/>
  <outline>
    <contour>
      <point x="150" y="911" type="line"/>
      <point x="408" y="532" type="line"/>
      <point x="150" y="156" type="line"/>
      <point x="55" y="156" type="line"/>
      <point x="238" y="532" type="line"/>
      <point x="55" y="911" type="line"/>
    </contour>
  </outline>
</glyph>
<glyph name="fraction" format="1">
  <advance width="616.448"/>
  <unicode hex="2044"/>
  <outline>
    <contour>
      <point x="551" y="1505" type="line"/>
      <point x="688" y="1505" type="line"/>
      <point x="68" y="-31" type="line"/>
      <point x="-70" y="-31" type="line"/>
    </contour>
  </outline>
</glyph>
<glyph name="Euro" format="1">
  <advance width="937.984"/>
  <unicode hex="20AC"/>
  <outline>
    <contour>
      <point x="758" y="430" type="qcurve"/>
      <point x="887" y="371" type="line"/>
      <point x="847.447761194" y="196.373134328"/>
      <point x="670.865671642" y="-25.0"/>
      <point x="494" y="-25" type="qcurve" smooth="yes"/>
      <point x="299.223880597" y="-25.0"/>
      <point x="76.0" y="331.402985075"/>
      <point x="76" y="662" type="qcurve" smooth="yes"/>
      <point x="76" y="811" type="line" smooth="yes"/>
      <point x="76.0" y="1140.85074627"/>
      <point x="301.462686567" y="1499.0"/>
      <point x="494" y="1499" type="qcurve" smooth="yes"/>
      <point x="661.910447761" y="1499.0"/>
      <point x="838.701492537" y="1295.1641791"/>
      <point x="879" y="1128" type="qcurve"/>
      <point x="748" y="1065" type="line"/>
      <point x="713.671641791" y="1206.79104478"/>
      <point x="598.746268657" y="1370.0"/>
      <point x="498" y="1370" type="qcurve" smooth="yes"/>
      <point x="380.089552239" y="1370.0"/>
      <point x="250.447761194" y="1121.52238806"/>
      <point x="240" y="926" type="qcurve"/>
      <point x="612" y="926" type="line"/>
      <point x="612" y="825" type="line"/>
      <point x="238" y="825" type="line"/>
      <point x="238" y="629" type="line"/>
      <point x="612" y="629" type="line"/>
      <point x="612" y="528" type="line"/>
      <point x="242" y="528" type="line"/>
      <point x="253.940298507" y="342.179104478"/>
      <point x="385.104477612" y="104.0"/>
      <point x="506" y="104" type="qcurve" smooth="yes"/>
      <point x="605.253731343" y="104.0"/>
      <point x="721.432835821" y="272.537313433"/>
    </contour>
  </outline>
</glyph>
<glyph name="uni2117" format="1">
  <advance width="1345.536"/>
  <unicode hex="2117"/>
  <outline>
    <contour>
      <point x="674" y="1499" type="qcurve" smooth="yes"/>
      <point x="936.686567164" y="1499.0"/>
      <point x="1278.0" y="1064.6119403"/>
      <point x="1278" y="737" type="qcurve" smooth="yes"/>
      <point x="1278.0" y="411.626865672"/>
      <point x="936.179104478" y="-25.0"/>
      <point x="672" y="-25" type="qcurve" smooth="yes"/>
      <point x="410.805970149" y="-25.0"/>
      <point x="70.0" y="410.134328358"/>
      <point x="70" y="737" type="qcurve" smooth="yes"/>
      <point x="70.0" y="1064.6119403"/>
      <point x="411.313432836" y="1499.0"/>
    </contour>
    <contour>
      <point x="674" y="33" type="qcurve" smooth="yes"/>
      <point x="915.044776119" y="33.0"/>
      <point x="1212.0" y="436.253731343"/>
      <point x="1212" y="737" type="qcurve" smooth="yes"/>
      <point x="1212.0" y="1037.0"/>
      <point x="913.044776119" y="1442.0"/>
      <point x="672" y="1442" type="qcurve" smooth="yes"/>
      <point x="430.208955224" y="1442.0"/>
      <point x="133.0" y="1038.49253731"/>
      <point x="133" y="737" type="qcurve" smooth="yes"/>
      <point x="133.0" y="437.746268657"/>
      <point x="430.71641791" y="33.0"/>
    </contour>
    <contour>
      <point x="684" y="1161" type="line" smooth="yes"/>
      <point x="809.373134328" y="1161.0"/>
      <point x="948.0" y="1031.3880597"/>
      <point x="948" y="909" type="qcurve" smooth="yes"/>
      <point x="948.0" y="783.626865672"/>
      <point x="810.865671642" y="649.0"/>
      <point x="684" y="649" type="qcurve" smooth="yes"/>
      <point x="618" y="649" type="line"/>
      <point x="618" y="322" type="line"/>
      <point x="500" y="322" type="line"/>
      <point x="500" y="1161" type="line"/>
    </contour>
    <contour>
      <point x="688" y="745" type="line" smooth="yes"/>
      <point x="758.149253731" y="745.0"/>
      <point x="829.0" y="827.388059701"/>
      <point x="829" y="905" type="qcurve" smooth="yes"/>
      <point x="829.0" y="981.865671642"/>
      <point x="756.149253731" y="1065.0"/>
      <point x="686" y="1065" type="qcurve" smooth="yes"/>
      <point x="618" y="1065" type="line"/>
      <point x="618" y="745" type="line"/>
    </contour>
  </outline>
</glyph>
<glyph name="radical" format="1">
  <advance width="948.224"/>
  <unicode hex="221A"/>
  <outline>
    <contour>
      <point x="731" y="1475" type="line"/>
      <point x="903" y="1475" type="line"/>
      <point x="496" y="-6" type="line"/>
      <point x="305" y="-6" type="line"/>
      <point x="55" y="696" type="line"/>
      <point x="223" y="696" type="line"/>
      <point x="397" y="162" type="line"/>
    </contour>
  </outline>
</glyph>
<glyph name="apple" format="1">
  <advance width="1024.0"/>
  <unicode hex="F8FF"/>
  <outline>
    <contour>
      <point x="565" y="438" type="line"/>
      <point x="946" y="369" type="line"/>
      <point x="891" y="207" type="line"/>
      <point x="543" y="383" type="line"/>
      <point x="598" y="0" type="line"/>
      <point x="426" y="0" type="line"/>
      <point x="481" y="383" type="line"/>
      <point x="133" y="207" type="line"/>
      <point x="78" y="369" type="line"/>
      <point x="459" y="438" type="line"/>
      <point x="174" y="731" type="line"/>
      <point x="174" y="743" type="line"/>
      <point x="459" y="1036" type="line"/>
      <point x="78" y="1106" type="line"/>
      <point x="133" y="1268" type="line"/>
      <point x="481" y="1092" type="line"/>
      <point x="426" y="1475" type="line"/>
      <point x="598" y="1475" type="line"/>
      <point x="543" y="1092" type="line"/>
      <point x="891" y="1268" type="line"/>
      <point x="946" y="1106" type="line"/>
      <point x="565" y="1036" type="line"/>
      <point x="850" y="743" type="line"/>
      <point x="850" y="731" type="line"/>
    </contour>
    <contour>
      <point x="512" y="457" type="line"/>
      <point x="690" y="737" type="line"/>
      <point x="512" y="1018" type="line"/>
      <point x="334" y="737" type="line"/>
    </contour>
  </outline>
</glyph>
<glyph name="endash.uc" format="1">
  <advance width="968.704"/>
  <outline>
    <contour>
      <point x="899" y="795" type="line"/>
      <point x="899" y="655" type="line"/>
      <point x="68" y="655" type="line"/>
      <point x="68" y="795" type="line"/>
    </contour>
  </outline>
</glyph>
<glyph name="registered" format="1">
  <advance width="724.992"/>
  <outline>
    <contour>
      <point x="424" y="1133" type="qcurve"/>
      <point x="518" y="967" type="line"/>
      <point x="432" y="967" type="line"/>
      <point x="348" y="1120" type="line"/>
      <point x="322" y="1120" type="line"/>
      <point x="322" y="967" type="line"/>
      <point x="250" y="967" type="line"/>
      <point x="250" y="1350" type="line"/>
      <point x="365" y="1350" type="line" smooth="yes"/>
      <point x="422.462686567" y="1350.0"/>
      <point x="496.0" y="1293.71641791"/>
      <point x="496" y="1237" type="qcurve" smooth="yes"/>
      <point x="496.0" y="1197.44776119"/>
      <point x="456.089552239" y="1144.94029851"/>
    </contour>
    <contour>
      <point x="362" y="1487" type="qcurve" smooth="yes"/>
      <point x="495.582089552" y="1487.0"/>
      <point x="674.0" y="1292.79104478"/>
      <point x="674" y="1151" type="qcurve" smooth="yes"/>
      <point x="674.0" y="1009.20895522"/>
      <point x="495.582089552" y="815.0"/>
      <point x="362" y="815" type="qcurve" smooth="yes"/>
      <point x="229.164179104" y="815.0"/>
      <point x="51.0" y="1008.70149254"/>
      <point x="51" y="1149" type="qcurve" smooth="yes"/>
      <point x="51.0" y="1292.28358209"/>
      <point x="229.164179104" y="1487.0"/>
    </contour>
    <contour>
      <point x="362" y="852" type="qcurve" smooth="yes"/>
      <point x="481.402985075" y="852.0"/>
      <point x="635.0" y="1025.11940299"/>
      <point x="635" y="1149" type="qcurve" smooth="yes"/>
      <point x="635.0" y="1275.86567164"/>
      <point x="479.910447761" y="1450.0"/>
      <point x="362" y="1450" type="qcurve" smooth="yes"/>
      <point x="243.343283582" y="1450.0"/>
      <point x="90.0" y="1276.37313433"/>
      <point x="90" y="1151" type="qcurve" smooth="yes"/>
      <point x="90.0" y="1025.62686567"/>
      <point x="244.835820896" y="852.0"/>
    </contour>
    <contour>
      <point x="362" y="1174" type="line" smooth="yes"/>
      <point x="391.104477612" y="1174.0"/>
      <point x="424.0" y="1207.3880597"/>
      <point x="424" y="1235" type="qcurve" smooth="yes"/>
      <point x="424.0" y="1262.6119403"/>
      <point x="390.597014925" y="1290.0"/>
      <point x="360" y="1290" type="qcurve" smooth="yes"/>
      <point x="322" y="1290" type="line"/>
      <point x="322" y="1174" type="line"/>
    </contour>
  </outline>
</glyph>
